<svg xmlns="http://www.w3.org/2000/svg" width="1254" height="1254" viewBox="0 0 1254 1254" version="1.1"><path d="M 622.250 36.728 C 624.313 36.944, 627.688 36.944, 629.750 36.728 C 631.813 36.513, 630.125 36.336, 626 36.336 C 621.875 36.336, 620.188 36.513, 622.250 36.728 M 1044.500 411.877 C 1033.336 416.613, 1020.240 423.200, 1008.615 429.925 C 1003.729 432.751, 999.541 434.875, 999.309 434.643 C 999.078 434.411, 999.588 431.519, 1000.444 428.216 C 1001.300 424.914, 1002 420.649, 1002 418.741 C 1002 414.315, 998.712 410, 995.341 410 C 991.566 410, 983.533 418.846, 973.020 434.579 C 957.642 457.593, 952 471.006, 952 484.556 C 952 489.653, 952.412 492.145, 953.348 492.700 C 954.089 493.140, 957.022 495.553, 959.866 498.063 L 965.037 502.625 959.406 515.029 C 949.286 537.318, 934.893 557.741, 919.254 572.001 C 907.734 582.505, 895.011 589.178, 882.535 591.260 C 867.399 593.786, 858.831 585.375, 857.312 566.498 L 856.749 559.496 867.624 549.937 C 873.606 544.680, 883.440 536.356, 889.478 531.439 C 904.301 519.369, 919.317 504.823, 924.501 497.515 C 934.752 483.061, 940.419 467.440, 940.468 453.500 C 940.496 445.736, 940.162 443.910, 938.041 440.206 C 935.057 434.995, 928.308 430.319, 922.517 429.450 C 920.164 429.097, 915.721 429.331, 912.645 429.970 C 902.603 432.055, 894.576 437.352, 881.468 450.546 C 861.603 470.541, 847.822 491.905, 820.541 545 C 806.395 572.531, 790.014 600.554, 781.700 611.442 C 779.733 614.018, 775.101 619.330, 771.408 623.245 C 765.949 629.032, 764.819 629.856, 765.373 627.651 C 765.747 626.159, 766.742 621.239, 767.583 616.719 C 768.423 612.199, 771.526 601.075, 774.477 592 C 782.081 568.615, 782.473 567.288, 787.016 549.500 C 789.264 540.700, 791.338 530.350, 791.625 526.500 C 792.084 520.360, 791.844 518.947, 789.677 515 C 786.637 509.465, 783.049 506.667, 778.992 506.667 C 776.659 506.667, 774.742 507.814, 771.128 511.374 C 764.274 518.125, 758.494 528.286, 745.417 556.571 C 732.375 584.782, 728.927 591.312, 721.351 602.149 C 709.997 618.392, 691.737 631.579, 679.002 632.734 C 673.669 633.217, 673.105 633.070, 671.896 630.879 C 670.114 627.650, 670.389 615.209, 672.433 606.528 C 677.290 585.898, 692.163 567.075, 723 542.529 C 744.994 525.023, 758.990 509.027, 764.715 494.854 C 768.323 485.922, 766.287 483.505, 754.212 482.383 C 740.210 481.082, 727.129 487.737, 711.495 504.114 C 692.227 524.298, 677.317 545.443, 655.517 583.500 C 634.480 620.225, 607.591 656.089, 595.054 664.144 C 581.050 673.141, 574.576 660.016, 581.464 636.591 C 582.905 631.691, 587.734 618.191, 592.196 606.591 C 597.099 593.843, 600.489 583.478, 600.766 580.388 C 601.332 574.083, 599.137 568.959, 594.249 565.172 C 592.352 563.703, 589.870 561.782, 588.733 560.905 C 586.707 559.343, 586.779 559.226, 592.333 555.124 C 597.230 551.506, 598 550.489, 598 547.640 C 598 539.734, 586.955 530, 577.985 530 C 568.282 530, 556.736 536.427, 539.500 551.422 C 534 556.207, 524.325 564.448, 518 569.734 C 501.997 583.108, 477.737 607.666, 469.331 619 C 458.923 633.032, 451.623 645.919, 447.904 656.821 C 444.872 665.714, 444.601 667.516, 444.578 679 C 444.556 689.563, 444.910 692.507, 446.864 698 C 452.663 714.305, 468.358 732.180, 478.895 734.481 C 482.181 735.199, 482.584 734.921, 491.407 725.861 C 510.711 706.040, 520.351 694.037, 537.331 668.681 C 547.751 653.122, 555.848 642.515, 556.676 643.342 C 556.908 643.575, 555.767 650.230, 554.141 658.132 C 549.939 678.550, 548.651 689.578, 549.226 700.220 C 549.970 713.998, 554.328 722.220, 561.610 723.587 C 567.984 724.782, 571.751 722.427, 586.381 708.097 C 612.700 682.317, 621.308 671.495, 635.990 645.726 C 639.994 638.700, 643.636 632.725, 644.084 632.448 C 644.532 632.171, 645.183 633.644, 645.531 635.722 C 648.245 651.936, 654.121 662.026, 663.970 667.387 C 668.542 669.876, 669.986 670.170, 675.959 669.832 C 681.840 669.500, 683.538 668.927, 688.625 665.559 C 697.111 659.941, 719.394 637.088, 727.199 626 C 730.877 620.775, 736.275 612.278, 739.193 607.117 C 742.112 601.957, 746.162 595.882, 748.194 593.617 L 751.888 589.500 751.347 593.500 C 749.922 604.044, 744.726 627.789, 741.556 638.247 C 734.510 661.490, 726.280 679.495, 716.983 692 C 707.305 705.019, 710.372 703.618, 665.499 715.512 C 578.821 738.488, 530.431 752.839, 481.014 770.223 C 410.427 795.056, 333.261 827.515, 261 862.770 C 249.725 868.271, 228.959 878.391, 214.853 885.260 C 187.966 898.351, 184.847 900.559, 189.233 903.399 C 193.122 905.918, 212.138 908.856, 238.500 911.013 C 256.327 912.472, 334.811 914.057, 339.282 913.049 C 341.274 912.600, 348.214 909.075, 354.702 905.217 C 405.050 875.279, 459.282 848.545, 522 822.747 C 545.746 812.980, 668.330 767, 670.624 767 C 670.905 767, 670.888 767.788, 670.586 768.750 C 669.386 772.581, 666.128 793.858, 665.878 799.498 C 665.638 804.919, 665.838 805.609, 667.949 806.662 C 669.538 807.454, 670.961 807.515, 672.393 806.854 C 674.336 805.956, 695.122 778.209, 706.545 761.262 L 711.423 754.025 724.962 749.560 C 754.070 739.961, 776.570 733.875, 863.500 712.091 C 987.986 680.895, 1003.439 677.597, 1072.300 667.523 C 1110.408 661.948, 1123.388 658.711, 1142.750 649.953 C 1152.148 645.702, 1150.659 642.473, 1137.988 639.622 C 1119.887 635.549, 1094.735 637.206, 1010 648.052 C 946.616 656.166, 911.703 661.235, 879 667.072 C 839.646 674.097, 768.896 688.431, 750.912 693.022 C 746.652 694.110, 742.713 695, 742.158 695 C 740.954 695, 746.976 680.760, 754.633 665.500 C 764.703 645.434, 780.373 624.117, 800.466 603.150 C 807.952 595.338, 820.755 584.296, 821.360 585.128 C 821.509 585.333, 822.834 589.230, 824.305 593.788 C 828.207 605.880, 834.567 618.575, 839.291 623.700 C 854.467 640.164, 879.515 636.049, 906 612.740 C 924.323 596.615, 936.434 579.572, 972.517 519.128 C 985.625 497.173, 996.652 485.047, 1014.024 473.488 C 1022.047 468.150, 1033.278 461.749, 1032.830 462.771 C 1032.649 463.186, 1028.129 472.294, 1022.787 483.012 C 1008.728 511.219, 1002.938 530.459, 1002.928 549 C 1002.915 575.135, 1019.190 590.473, 1037.283 581.378 C 1044.246 577.878, 1058.059 563.815, 1065.652 552.497 C 1068.971 547.549, 1075.789 536.266, 1080.803 527.424 C 1096.320 500.056, 1102.958 484.558, 1100.299 481.899 C 1099.482 481.082, 1098.718 481.546, 1097.426 483.643 C 1086.918 500.693, 1079.528 510.588, 1070.554 519.623 C 1052.874 537.423, 1042.999 540.412, 1037.291 529.689 C 1034.865 525.131, 1035.135 513.510, 1037.900 503.500 C 1040.748 493.187, 1047.642 478.881, 1057.785 462.234 C 1068.340 444.910, 1070.331 439.635, 1069.759 430.500 C 1069.023 418.736, 1062.478 407.958, 1056.115 408.029 C 1054.677 408.045, 1049.450 409.777, 1044.500 411.877 M 443.609 453.687 C 438.269 461.028, 427.258 483.889, 415.990 511.027 C 389.787 574.137, 367.811 607.899, 342.901 623.315 C 334.601 628.453, 321.990 634.182, 308.513 638.939 L 299.865 641.992 304.117 634.246 C 306.456 629.986, 314.431 616.375, 321.840 604 C 337.007 578.667, 345.483 562.612, 352.197 546.500 C 365.669 514.167, 369.274 490.640, 363.432 473.176 C 360.002 462.922, 355.779 456.541, 350.298 453.329 C 346.079 450.856, 345.329 450.749, 336.171 451.305 C 290.881 454.053, 208.430 499.216, 143.801 556.677 C 125.774 572.704, 115.311 588.697, 112.489 604.536 C 110.823 613.886, 110.535 641.274, 112.020 649.106 C 113.233 655.504, 115.752 658.531, 119.002 657.499 C 124.963 655.607, 167.686 621.171, 184.750 604.503 C 191.788 597.628, 193 595.960, 193 593.145 C 193 590.796, 192.116 588.962, 189.930 586.776 C 188.241 585.087, 187.250 583.434, 187.728 583.103 C 192.268 579.954, 213.306 563.527, 229.658 550.362 C 281.979 508.237, 303.477 495.970, 322.815 497.201 C 328.627 497.571, 329.559 497.942, 332.256 500.960 C 334.969 503.997, 335.198 504.783, 334.712 509.405 C 331.888 536.227, 277.618 645.437, 256.910 665.967 C 250.326 672.494, 231.927 684.483, 221.494 689.046 C 217.143 690.948, 181.179 704, 180.288 704 C 180.105 704, 178.600 706.138, 176.943 708.750 C 172.279 716.103, 168.755 728.183, 168.702 737 C 168.627 749.597, 172.699 753.961, 183.226 752.564 C 187.352 752.017, 204.647 746.980, 211.830 744.233 C 212.562 743.953, 211.377 747.274, 209.198 751.612 C 202.267 765.405, 191.074 790.739, 188.369 798.755 C 184.960 808.855, 184.206 817.564, 186.377 821.762 C 188.146 825.183, 193 829.289, 197.133 830.861 C 200.730 832.228, 202.413 830.871, 210.258 820.279 C 218.476 809.182, 220.960 804.669, 231.047 782.500 C 253.991 732.078, 263.406 720.584, 292.111 707.951 C 301.063 704.011, 327.971 694.637, 328.580 695.247 C 328.739 695.406, 327.548 700.253, 325.933 706.018 C 318.997 730.779, 316 751.151, 316 773.539 C 316 784.358, 316.233 786.027, 318.073 788.365 C 321.929 793.268, 324.205 792.263, 342.754 777.464 L 359.721 763.928 358.328 758.214 C 354.576 742.823, 357.395 718.834, 366.057 692.458 L 369.027 683.415 385.779 678.708 C 394.993 676.118, 403.279 674, 404.193 674 C 405.153 674, 407.103 671.786, 408.817 668.750 C 410.447 665.862, 419.260 650.362, 428.401 634.303 C 437.542 618.245, 445.307 604.362, 445.657 603.453 C 446.680 600.785, 444.117 600.031, 434 600.024 C 425.705 600.018, 404.640 603.419, 393.263 606.601 C 391.288 607.153, 391.827 605.658, 397.852 593.863 C 401.607 586.514, 408.635 573.098, 413.471 564.051 C 423.284 545.690, 425.285 541.449, 435.008 518.393 C 449.428 484.203, 455.595 459.688, 451.710 452.009 C 449.655 447.948, 447.453 448.404, 443.609 453.687 M 899.370 463.894 C 896.680 466.036, 891.753 470.874, 888.421 474.644 C 873.881 491.099, 865.936 504.207, 860.628 520.500 C 857.620 529.735, 855.806 541, 857.328 541 C 859.483 541, 876.109 522.771, 886.149 509.399 C 905.280 483.923, 910.934 474.582, 910.978 468.385 C 911.001 465.073, 907.722 460, 905.558 460 C 904.845 460, 902.060 461.753, 899.370 463.894 M 550.826 587.773 C 527.716 604.415, 502.451 624.581, 493.511 633.521 C 484.458 642.575, 477.086 653.577, 472.963 664.191 C 466.112 681.830, 468.685 705, 477.495 705 C 483.392 705, 495.379 692.059, 516.845 662.517 C 532.625 640.801, 554.451 608.406, 561.490 596.252 C 565.852 588.722, 570.838 574.968, 569.187 575.023 C 568.809 575.036, 560.547 580.773, 550.826 587.773 M 209.349 612 C 209.349 616.675, 209.522 618.587, 209.732 616.250 C 209.943 613.913, 209.943 610.087, 209.732 607.750 C 209.522 605.413, 209.349 607.325, 209.349 612" stroke="none" fill="#ac2424" fill-rule="evenodd"/><path d="M 588 1.123 C 508.731 4.464, 428.270 25.338, 356.739 61.121 C 228.384 125.328, 122.456 233.837, 60.969 364.096 C 36.124 416.730, 19.468 470.080, 9.520 528.888 C -0.658 589.062, -1.418 658.734, 7.458 718 C 20.823 807.246, 52.599 889.337, 103.454 966 C 145.491 1029.371, 196.974 1081.985, 261.495 1127.515 C 361.819 1198.308, 471.014 1238.052, 587 1245.988 C 605.548 1247.257, 650.109 1247.257, 669.500 1245.987 C 786.185 1238.347, 907.345 1193.572, 1000.500 1123.667 C 1045.815 1089.662, 1082.314 1054.302, 1118.861 1009 C 1143.319 978.682, 1169.169 937.684, 1188.530 898.500 C 1213.321 848.328, 1229.680 800.542, 1240.394 747 C 1248.542 706.283, 1251.423 674.041, 1251.386 624 C 1251.349 575.002, 1248.557 546.539, 1239.468 502.500 C 1218.561 401.203, 1170.473 303.681, 1100.574 220.822 C 1078.240 194.346, 1039.619 157.041, 1009 132.365 C 986.593 114.309, 955.443 92.960, 931.500 79.254 C 862.517 39.761, 794.404 15.544, 728.500 7.077 C 679.357 0.764, 638.060 -0.986, 588 1.123 M 591.500 23.593 C 589.300 23.804, 580.975 24.456, 573 25.042 C 502.238 30.243, 429.823 50.282, 367 82.049 C 204.415 164.260, 85.256 312.445, 41.585 486.733 C 30.404 531.354, 25.174 571.987, 24.302 621 C 23.739 652.653, 24.397 667.865, 27.542 696 C 44.470 847.392, 124.293 990.119, 246 1086.616 C 301.850 1130.898, 366.124 1166.890, 430 1189.652 C 480.315 1207.582, 532.882 1218.773, 587 1223.075 C 604.441 1224.462, 653.647 1224.449, 671 1223.053 C 774.646 1214.715, 876.750 1179.303, 962.692 1121.888 C 1010.930 1089.662, 1059.315 1045.639, 1095.578 1000.985 C 1157.431 924.818, 1201.116 832.013, 1218.428 740 C 1222.026 720.876, 1225.581 692.736, 1227.966 664.500 C 1229.487 646.489, 1229.221 599.210, 1227.485 579 C 1214.686 429.996, 1146.941 291.275, 1035.634 186.151 C 944.789 100.353, 829.707 42.954, 720.549 28.998 C 686.779 24.680, 674.001 23.869, 634.500 23.537 C 613.050 23.357, 593.700 23.382, 591.500 23.593 M 590 37.587 C 588.625 37.745, 580.525 38.393, 572 39.028 C 442.111 48.695, 315.039 109.153, 215.596 208.596 C 147.389 276.803, 97.886 356.430, 68.006 446 C 45.559 513.286, 35.188 585.168, 38.146 652.955 C 42.696 757.254, 73.763 852.797, 132.130 942 C 168.430 997.477, 221.370 1052.544, 276.500 1092.169 C 368.411 1158.231, 465.343 1195.965, 573 1207.594 C 592.952 1209.749, 646.520 1210.578, 667.218 1209.052 C 781.208 1200.648, 892.661 1158.740, 983.451 1090.141 C 1016.192 1065.403, 1053.261 1030.049, 1079.443 998.591 C 1147.117 917.279, 1191.384 821.595, 1207.624 721.530 C 1213.065 688, 1216.573 639.849, 1215.603 612 C 1211.413 491.707, 1172.564 379.634, 1100.692 280.500 C 1029.648 182.508, 923.123 103.077, 811.926 65.179 C 764.852 49.136, 726.968 41.932, 669 38.003 C 656.230 37.137, 596.647 36.823, 590 37.587 M 596.415 66.750 C 596.072 68.263, 595.163 72.040, 594.396 75.144 C 593.628 78.249, 593 81.736, 593 82.894 C 593 87.258, 591.390 84.680, 588.025 74.928 L 584.549 64.856 578.525 65.540 C 575.211 65.917, 572.405 66.306, 572.290 66.406 C 572.174 66.506, 574.528 72.934, 577.520 80.691 L 582.959 94.796 579.360 110.944 C 577.380 119.826, 576.029 127.362, 576.357 127.691 C 576.686 128.020, 579.319 127.886, 582.207 127.394 L 587.460 126.500 589.564 116.996 C 590.722 111.770, 591.889 106.832, 592.159 106.024 C 592.428 105.216, 594.415 109.431, 596.574 115.392 L 600.500 126.230 606.329 125.703 C 609.535 125.413, 612.340 124.994, 612.562 124.771 C 612.784 124.549, 610.295 117.675, 607.032 109.495 L 601.097 94.623 604.549 79.931 C 606.447 71.851, 608 64.961, 608 64.620 C 608 64.279, 605.534 64, 602.519 64 C 597.358 64, 597.002 64.160, 596.415 66.750 M 669 67.190 C 667.075 68.502, 664.870 70.885, 664.100 72.486 C 662.410 76.001, 658.750 112.010, 659.561 117.135 C 660.685 124.229, 667.065 128.320, 677.176 128.428 C 682.419 128.485, 684.458 128.057, 686.676 126.435 C 690.650 123.530, 692.831 118.486, 693.134 111.500 L 693.395 105.500 687.947 104.910 C 684.951 104.585, 682.374 104.412, 682.219 104.524 C 682.064 104.637, 681.665 107.152, 681.332 110.114 C 680.998 113.076, 680.282 116.063, 679.740 116.750 C 678.309 118.567, 673.060 118.320, 672.324 116.401 C 671.986 115.522, 672.467 106.410, 673.392 96.151 C 675.179 76.338, 675.909 74.216, 680.448 75.630 C 683.586 76.608, 684.119 78.043, 683.461 83.750 L 682.856 89 685.803 89 C 687.424 89, 690.093 89.269, 691.735 89.597 L 694.720 90.194 695.409 84.102 C 695.967 79.173, 695.724 77.164, 694.137 73.576 C 691.681 68.024, 687.730 65.850, 679.008 65.252 C 673.365 64.865, 672.035 65.123, 669 67.190 M 503.831 77.364 C 496.862 79.089, 490.869 80.793, 490.513 81.151 C 490.156 81.510, 492.638 93.435, 496.028 107.651 C 504.227 142.034, 503.950 141, 504.975 141 C 506.279 141, 531.333 135, 531.744 134.590 C 532.043 134.290, 529.986 124.971, 529.631 125.017 C 529.559 125.027, 526.142 125.906, 522.038 126.972 C 517.934 128.038, 514.384 128.718, 514.150 128.483 C 513.915 128.248, 512.946 124.781, 511.997 120.778 C 510.048 112.564, 509.863 112.875, 517.813 111.014 C 521.468 110.158, 522.968 109.360, 522.622 108.456 C 522.344 107.733, 521.816 105.535, 521.447 103.571 C 521.079 101.607, 520.624 100, 520.437 100 C 520.251 100, 517.510 100.674, 514.347 101.498 C 511.184 102.322, 508.285 102.659, 507.906 102.248 C 507.527 101.837, 506.541 98.478, 505.715 94.784 C 504.009 87.152, 503.239 88.054, 513.296 85.902 C 516.483 85.220, 519.308 84.311, 519.573 83.882 C 520.193 82.878, 517.965 73.964, 517.131 74.114 C 516.784 74.176, 510.799 75.639, 503.831 77.364 M 758.008 84.250 C 754.642 92.145, 735.866 134.389, 735.339 135.252 C 734.801 136.132, 738.349 137.600, 743.227 138.515 C 746.592 139.146, 746.712 139.052, 748.744 134.161 L 750.822 129.162 755.661 130.407 L 760.500 131.652 760.500 137.481 L 760.500 143.310 765.780 144.791 C 768.684 145.606, 771.242 146.091, 771.464 145.869 C 771.686 145.647, 773.022 133.098, 774.434 117.983 C 775.845 102.867, 777.222 88.861, 777.494 86.858 L 777.989 83.216 770.176 81.108 C 765.879 79.949, 761.887 79, 761.305 79 C 760.723 79, 759.239 81.362, 758.008 84.250 M 759.566 107.599 C 756.915 113.970, 755.148 119.513, 755.628 119.949 C 756.483 120.727, 761.992 122.298, 762.009 121.769 C 762.013 121.621, 762.677 115.902, 763.484 109.059 C 764.291 102.216, 764.822 96.488, 764.663 96.330 C 764.505 96.171, 762.211 101.243, 759.566 107.599 M 828.698 133.771 C 824.407 150.122, 820.919 164.018, 820.948 164.652 C 820.977 165.286, 822.237 166.254, 823.750 166.803 C 825.263 167.353, 829.033 168.942, 832.129 170.335 L 837.757 172.867 847.580 156.684 C 852.982 147.783, 860.236 136.029, 863.701 130.565 C 867.165 125.101, 870 120.353, 870 120.014 C 870 119.033, 860.957 114.909, 860.043 115.473 C 859.256 115.960, 840.628 145.925, 838.060 150.836 C 836.437 153.937, 835.750 153.067, 836.936 149.412 C 837.455 147.810, 839.967 138.850, 842.518 129.500 C 845.069 120.150, 847.369 111.734, 847.630 110.797 C 847.965 109.595, 846.987 108.530, 844.302 107.175 C 836.015 102.993, 837.391 100.648, 828.698 133.771 M 367.143 131.220 C 363.974 132.063, 346 141.762, 346 142.630 C 346 142.987, 374.899 195.131, 375.432 195.737 C 375.800 196.155, 385.983 190.524, 385.992 189.898 C 385.996 189.566, 383.458 184.659, 380.351 178.993 C 374.942 169.128, 374.783 168.632, 376.600 167.303 C 380.675 164.323, 383.142 165.960, 388.539 175.228 C 391.335 180.028, 393.888 184.221, 394.212 184.545 C 394.695 185.029, 404.449 180.719, 405.927 179.369 C 406.162 179.155, 405.210 177.746, 403.810 176.240 C 402.411 174.733, 399.632 170.533, 397.635 166.906 C 393.369 159.162, 391.323 157.087, 387.652 156.783 C 385.828 156.632, 385.125 156.115, 385.482 155.187 C 387.248 150.585, 387.084 148.694, 384.469 143.527 C 379.057 132.829, 374.165 129.354, 367.143 131.220 M 365.352 142.993 C 364.171 143.470, 362.901 144.352, 362.529 144.953 C 361.866 146.026, 368.180 158.375, 369.952 159.470 C 370.449 159.777, 372.106 158.953, 373.635 157.637 L 376.415 155.246 374.494 150.987 C 372.431 146.413, 369.280 141.960, 368.177 142.063 C 367.805 142.098, 366.534 142.517, 365.352 142.993 M 903.677 174.172 C 892.305 186.366, 883.001 196.603, 883.002 196.922 C 883.003 197.240, 885.091 198.819, 887.642 200.431 L 892.281 203.361 895.890 199.153 L 899.500 194.945 903.500 197.627 C 905.700 199.102, 907.617 200.393, 907.760 200.497 C 907.903 200.601, 907.034 203.057, 905.831 205.954 L 903.642 211.221 906.005 213.004 C 907.304 213.984, 909.646 215.541, 911.209 216.464 L 914.050 218.142 916.177 213.321 C 917.346 210.670, 923.184 197.951, 929.148 185.057 C 935.113 172.163, 939.640 161.363, 939.208 161.057 C 931.852 155.838, 925.929 152, 925.232 152 C 924.749 152, 915.049 161.977, 903.677 174.172 M 598 155.590 C 596.075 155.805, 589.550 156.471, 583.500 157.071 C 556.138 159.782, 516.330 168.316, 489.500 177.223 C 431.224 196.569, 378.388 226.487, 331 266.974 C 316.580 279.293, 288.444 307.868, 275.834 323 C 240.763 365.083, 211.253 417.326, 195.058 466 C 190.758 478.925, 183.958 503.369, 181.983 513 C 180.946 518.061, 180.402 518.832, 175.178 522.650 C 166.570 528.941, 145.169 547.020, 135.548 556.127 C 121.506 569.418, 112.725 582.587, 107.961 597.500 C 106.066 603.430, 105.651 607.450, 105.243 623.803 C 104.570 650.753, 106.407 659.067, 113.810 662.580 C 116.926 664.059, 117.551 664.060, 121.354 662.596 C 126.102 660.768, 149.959 643.141, 164 631.086 L 173.500 622.930 174.241 637.715 C 174.971 652.271, 178.265 681.676, 180.042 689.500 C 181.543 696.108, 181.189 697.317, 176.871 700.305 C 173.728 702.481, 171.965 704.949, 169.015 711.305 C 164.440 721.161, 162.993 727.558, 163.022 737.799 C 163.070 754.594, 170.986 760.920, 187.604 757.443 C 191.396 756.649, 194.797 756, 195.162 756 C 195.526 756, 196.120 757.751, 196.482 759.891 C 197.019 763.071, 196.570 764.908, 194.029 769.943 C 192.318 773.332, 188.914 780.998, 186.465 786.978 C 176.548 811.191, 176.614 822.812, 186.712 830.749 C 198.783 840.236, 203.376 839.143, 214.640 824.105 L 221.362 815.130 229.766 830.315 C 237.414 844.133, 242.959 853.716, 246.802 859.755 C 248.224 861.991, 247.974 862.139, 217.814 876.959 C 201.081 885.182, 186.196 893.016, 184.736 894.369 C 179.834 898.912, 180.113 905.062, 185.376 908.511 C 191.761 912.695, 222.409 916.571, 261.727 918.167 L 289.954 919.313 305.727 935.261 C 384.053 1014.457, 476.531 1061.252, 582 1075.059 C 602.834 1077.787, 648.112 1078.834, 669.284 1077.079 C 777.799 1068.082, 881.280 1018.836, 962.517 937.531 C 990.767 909.257, 1012.321 881.083, 1032.541 846 C 1059.465 799.284, 1080.037 739.695, 1087.910 685.618 C 1089.022 677.982, 1090.106 671.560, 1090.320 671.347 C 1090.534 671.133, 1094.421 670.305, 1098.958 669.507 C 1115.895 666.530, 1139.135 659.030, 1148.613 653.483 C 1158.570 647.656, 1155.729 638.592, 1142.612 634.338 C 1138.677 633.061, 1132.296 632.580, 1114.888 632.247 L 1092.277 631.814 1091.683 608.157 C 1091.085 584.287, 1089.793 570.472, 1085.895 546.271 L 1083.765 533.042 1086.769 528.271 C 1093.037 518.314, 1102.889 499.241, 1105.040 492.898 C 1108.629 482.313, 1106.098 475.485, 1098.844 476.180 C 1095.883 476.463, 1094.846 477.474, 1089.796 485 C 1080.606 498.694, 1077.541 502.954, 1076.861 502.978 C 1076.510 502.990, 1075.930 501.442, 1075.573 499.539 C 1075.216 497.635, 1072.483 488.523, 1069.501 479.289 L 1064.077 462.500 1066.402 458.978 C 1075.625 445.005, 1077.926 433.447, 1074.011 420.770 C 1070.509 409.433, 1063.348 401.982, 1056 402.031 C 1054.075 402.044, 1049.512 403.329, 1045.861 404.887 L 1039.221 407.720 1034.448 399.110 C 986.846 313.253, 912.336 242.246, 826.500 200.940 C 776.566 176.910, 731.427 163.635, 677 156.974 C 667.946 155.866, 605.353 154.769, 598 155.590 M 598.500 169.690 C 595.750 169.872, 587.425 170.724, 580 171.583 C 463.478 185.077, 355.700 245.555, 280.287 339.761 C 249.118 378.698, 219.138 433.984, 206.139 476.500 C 202.046 489.890, 197.961 505.295, 198.391 505.725 C 198.583 505.916, 204.713 502.311, 212.014 497.713 L 225.290 489.354 230.466 474.427 C 236.870 455.962, 241.264 445.438, 249.132 429.717 C 284.010 360.036, 336.140 301.327, 400.066 259.736 C 410.770 252.771, 434.106 239, 435.203 239 C 435.474 239, 433.554 243.162, 430.935 248.250 C 423.176 263.326, 421.786 268.570, 422.130 281.463 L 422.425 292.500 412.709 310.240 C 407.364 319.997, 397.404 339.457, 390.575 353.485 C 380.689 373.791, 377.655 379.181, 375.690 379.928 C 371.724 381.436, 366.210 386.833, 365.052 390.342 C 364.464 392.124, 364.062 397.614, 364.158 402.542 C 364.380 413.809, 362.499 418.044, 355.166 422.795 C 347.015 428.077, 338 439.196, 338 443.968 C 338 444.536, 339.913 445.010, 342.250 445.022 C 344.587 445.034, 348.383 445.899, 350.685 446.944 L 354.871 448.844 362.185 446.340 C 366.208 444.963, 370.014 443.177, 370.643 442.373 C 371.272 441.568, 372.078 438.966, 372.434 436.590 C 372.791 434.214, 373.775 431.422, 374.623 430.385 C 376.120 428.553, 376.145 428.556, 375.502 430.500 C 375.138 431.600, 374.439 434.930, 373.948 437.900 C 373.458 440.870, 372.541 444.861, 371.911 446.769 C 370.824 450.063, 371.067 456.754, 372.391 460 C 372.794 460.988, 372.001 462.069, 370.069 463.165 L 367.135 464.829 368.818 469.811 C 370.431 474.588, 370.630 474.772, 373.653 474.281 C 378.077 473.564, 378.988 475.838, 378.805 487.143 L 378.653 496.500 375.577 490 L 372.500 483.500 371.853 494.642 C 371.254 504.969, 367.253 524.729, 364.840 529.282 C 364.320 530.262, 363.254 534.712, 362.470 539.171 C 360.836 548.465, 353.060 565.701, 346.079 575.500 C 341.183 582.373, 328.849 603.182, 329.365 603.698 C 330.204 604.537, 342.309 595.432, 348.245 589.496 C 364.143 573.598, 375.577 550.993, 379.513 527.679 C 380.973 519.029, 382.688 513, 383.687 513 C 383.931 513, 385 513.465, 386.062 514.033 C 389.354 515.795, 391.870 522.318, 393.043 532.136 C 393.659 537.286, 394.367 542.142, 394.618 542.927 C 395.142 544.569, 399.020 536.693, 406.152 519.500 C 426.533 470.366, 431.137 460.649, 438.931 450.329 C 440.937 447.673, 443.749 444.936, 445.180 444.248 C 448.291 442.750, 449.109 439.966, 457.978 400.683 C 461.308 385.934, 467.024 362.309, 470.681 348.183 C 476.927 324.060, 477.336 321.802, 477.415 311 C 477.520 296.713, 476.695 294.585, 469.304 290.096 C 463.136 286.349, 463.504 286.237, 459.742 293.021 C 458.774 294.765, 457.087 296.426, 455.992 296.712 C 454.896 296.999, 454 297.794, 454 298.480 C 454 299.165, 451.030 304.107, 447.400 309.460 C 435.195 327.460, 429.647 343.546, 422.983 380.250 C 420.723 392.697, 419.771 395.003, 418.520 391.062 C 417.433 387.638, 410.916 382.682, 403.263 379.460 C 402.833 379.279, 412.651 356.689, 417.805 346 C 423.349 334.505, 433.895 315.825, 443.209 301.006 C 448.073 293.266, 448.975 291.189, 448.087 289.768 C 446.410 287.083, 444.031 279.760, 444.015 277.235 C 444.007 275.989, 445.329 272.614, 446.952 269.735 C 448.576 266.856, 451.087 261.350, 452.532 257.500 C 457.107 245.311, 460.484 241.477, 462.883 245.750 C 463.795 247.375, 463.911 247.357, 464.505 245.500 C 465.545 242.246, 466.534 240.696, 468.269 239.602 C 470.679 238.082, 471.595 239.686, 469.585 241.906 C 468.474 243.134, 467.966 245.022, 468.174 247.147 C 468.382 249.262, 468.046 250.520, 467.250 250.609 C 466.563 250.687, 465.325 250.806, 464.500 250.875 C 463.675 250.944, 463 251.503, 463 252.118 C 463 252.733, 461.650 254.774, 460 256.653 C 456.658 260.459, 456.231 263.457, 458.557 266.777 C 460.693 269.828, 463.283 269.563, 466.923 265.923 C 469.431 263.415, 470 262.029, 470 258.423 C 470 253.640, 471.153 252.892, 474.559 255.468 C 477.155 257.432, 481.631 257.404, 482.393 255.418 C 483.805 251.738, 482.870 246.306, 479.947 241.209 C 476.630 235.425, 473.428 233.528, 468.727 234.560 C 466.022 235.154, 465.853 235.025, 466.485 232.851 C 466.861 231.558, 468.143 228.475, 469.334 226 C 471.331 221.850, 472.123 221.249, 479.500 218.273 C 483.900 216.498, 487.990 215.035, 488.589 215.023 C 489.189 215.010, 490.192 216.125, 490.818 217.500 C 492.396 220.962, 493.428 220.656, 496.717 215.750 C 500.164 210.607, 503.009 209.918, 506.479 213.388 C 509.395 216.304, 509.608 219.145, 507.500 227 C 505.538 234.308, 505.622 239.816, 507.752 243.635 C 508.713 245.359, 513.550 252.185, 518.500 258.804 C 523.450 265.422, 531.325 276.794, 536 284.075 C 542.869 294.773, 546.288 298.962, 553.820 305.907 C 568.649 319.580, 612.569 371.754, 645.392 414.686 C 646.432 416.047, 634.057 406.408, 617.892 393.267 C 595.717 375.242, 586.904 367.426, 582 361.437 C 578.425 357.072, 573.647 351.588, 571.382 349.250 C 567.516 345.261, 566.925 345, 561.742 345 C 556.114 345, 552.421 343.163, 551.792 340.052 C 551.580 338.998, 552.590 338.563, 555.500 338.455 C 557.700 338.373, 560.772 338.237, 562.327 338.153 C 565.395 337.987, 571 333.141, 571 330.654 C 571 328.598, 566.156 323, 564.377 323 C 562.841 323, 562.856 326.391, 564.403 328.862 C 564.942 329.722, 564.750 330.537, 563.881 331.074 C 561.997 332.238, 555 325.351, 555 322.332 C 555 321.055, 555.918 319.579, 557.107 318.943 C 559.878 317.460, 558.194 315.734, 554.403 316.172 C 552.629 316.377, 551.038 317.440, 550.165 319.003 C 548.952 321.175, 548.977 321.968, 550.355 325.003 C 551.229 326.926, 552.679 329.625, 553.577 331 C 554.522 332.446, 553.865 332.024, 552.021 330 C 550.267 328.075, 548.419 325.458, 547.916 324.185 C 545.921 319.142, 547.456 312, 550.535 312 C 552.662 312, 552.330 310.247, 549.962 308.980 C 545.243 306.454, 541.165 311.736, 542.469 318.687 C 543.237 322.779, 546.242 329.178, 549.137 332.885 C 551.617 336.060, 551.512 336.545, 548.032 337.987 C 545.202 339.159, 544.808 338.989, 539.618 334.358 C 530.977 326.648, 529.714 324.651, 530.509 319.949 C 531.612 313.420, 527.892 310.873, 523.407 315.088 L 521.185 317.175 516.714 315.198 C 509.196 311.872, 486.650 296.288, 484.286 292.783 C 483.068 290.977, 478.931 286.387, 475.091 282.582 C 469.118 276.661, 467.886 275.850, 466.555 276.954 C 464.198 278.910, 464.660 280.573, 468.420 283.677 C 470.301 285.230, 474.871 290.054, 478.575 294.397 C 484.403 301.230, 485.362 302.914, 485.697 306.897 C 485.910 309.429, 487.640 317.829, 489.542 325.564 C 491.444 333.300, 492.998 340.275, 492.995 341.064 C 492.992 341.854, 490.940 347, 488.433 352.500 C 480.587 369.718, 476.539 380.533, 465.706 413.228 L 455.193 444.955 457.175 448.728 C 458.829 451.876, 459.075 453.822, 458.661 460.500 C 458.251 467.125, 455.455 480.266, 452.491 489.500 L 451.849 491.500 453.116 489.500 C 454.594 487.168, 459.090 475.961, 466.136 457.049 C 470.781 444.580, 473.864 437.541, 473.960 439.185 C 474.021 440.224, 466.279 461.699, 456.052 488.859 C 451.007 502.256, 446.621 515.407, 446.304 518.083 C 445.728 522.944, 444 524.006, 444 519.500 C 444 514.097, 442.035 516.814, 436.553 529.796 C 433.371 537.333, 428.164 548.563, 424.984 554.750 C 421.803 560.938, 419.295 566, 419.411 566 C 420.765 566, 433.323 560.390, 436.136 558.529 C 443.758 553.485, 448.253 544.378, 449.480 531.500 C 450.680 518.895, 452.064 512.949, 456.666 500.639 C 465.665 476.570, 472.280 458.236, 477.104 444 C 484.768 421.381, 496.311 389.992, 496.935 390.071 C 497.246 390.111, 509.738 403.498, 524.696 419.821 C 539.654 436.145, 560.288 458.500, 570.550 469.500 C 580.811 480.500, 596.993 498.500, 606.510 509.500 C 616.027 520.500, 631.777 537.501, 641.509 547.281 L 659.206 565.061 667.131 552.352 L 675.056 539.642 671.278 535.700 C 669.200 533.532, 659.850 524.906, 650.500 516.531 C 613.407 483.304, 583.482 452.047, 548.989 410.500 C 542.139 402.250, 529.665 388.486, 521.268 379.913 C 512.870 371.341, 506 364.028, 506 363.663 C 506 363.298, 506.612 363, 507.360 363 C 508.109 363, 510.420 361.847, 512.498 360.437 C 514.575 359.028, 516.584 358.240, 516.963 358.687 C 521.661 364.229, 541.487 385.875, 557.550 403 C 579.568 426.473, 603.335 451.920, 631.960 482.670 C 652.606 504.849, 679.076 532, 680.052 532 C 680.403 532, 683.491 528.344, 686.913 523.875 L 693.135 515.750 690.754 513.125 C 689.444 511.681, 682.052 503.525, 674.327 495 C 666.602 486.475, 648.267 467.831, 633.582 453.569 C 618.898 439.306, 599.066 418.831, 589.512 408.069 C 579.957 397.306, 568.846 385.807, 564.820 382.516 C 554.861 374.376, 543.989 363.164, 541.186 358.144 C 537.497 351.537, 539.727 352.628, 554 364.415 C 561.440 370.559, 589.966 395.033, 609.824 412.308 C 621.119 422.134, 644.220 439.163, 649.673 441.685 C 656.082 444.647, 658.782 444.108, 663.742 438.873 C 668.363 433.996, 679.434 429.944, 683.193 431.754 L 685.500 432.865 683.154 432.932 C 681.864 432.970, 679.527 433.913, 677.960 435.028 C 675.766 436.591, 675.023 438.026, 674.723 441.278 C 674.399 444.792, 674.202 445.123, 673.550 443.250 C 673.119 442.012, 672.395 441, 671.940 441 C 670.576 441, 668 445.293, 668 447.568 C 668 451.483, 670.855 452.849, 678.500 452.590 C 682.350 452.460, 686.288 452, 687.250 451.569 C 688.753 450.896, 689 451.342, 689 454.734 C 689 464.286, 693.143 471.763, 705.862 485.166 L 713.672 493.396 718.586 489.292 C 721.289 487.035, 726.323 483.722, 729.772 481.929 L 736.044 478.671 727.099 470.324 C 711.464 455.735, 702.902 442.924, 701.699 432.318 C 700.994 426.115, 698.043 419.965, 694.390 417.092 C 691.543 414.852, 683.120 412, 679.353 412 C 676.165 412, 671.328 407.464, 659.654 393.527 C 654.113 386.912, 642.791 373.625, 634.495 364 C 626.198 354.375, 613.589 339.525, 606.474 331 C 587.402 308.148, 573.330 292.312, 557.283 275.645 C 549.417 267.475, 539.556 256, 535.369 250.145 C 531.182 244.290, 526.634 238.295, 525.261 236.823 C 522.896 234.285, 522.774 233.583, 522.916 223.323 C 523.039 214.460, 522.723 211.831, 521.170 208.808 L 519.274 205.115 531.887 202.067 C 547.575 198.276, 569.179 194.595, 587.500 192.592 C 672.107 183.340, 759.009 201.895, 835 245.437 C 896.787 280.840, 945.486 326.332, 985.651 386.164 C 994.681 399.616, 998.849 404.996, 1000.577 405.430 C 1003.925 406.270, 1006.233 410.251, 1007.107 416.694 C 1007.517 419.715, 1008.076 422.409, 1008.349 422.682 C 1008.622 422.955, 1011.996 421.338, 1015.847 419.089 C 1019.698 416.840, 1023.306 415, 1023.865 415 C 1026.410 415, 1025.818 412.328, 1021.508 404.357 C 986.594 339.784, 927.112 277.087, 862.500 236.755 C 803.004 199.617, 737.006 176.915, 670.063 170.560 C 655.179 169.148, 614.269 168.650, 598.500 169.690 M 914.227 178.330 L 905.954 187.500 908.727 189.745 C 910.252 190.980, 911.734 191.992, 912.020 191.995 C 912.306 191.998, 915.116 186.825, 918.265 180.500 C 921.413 174.175, 923.654 169.036, 923.245 169.080 C 922.835 169.123, 918.777 173.286, 914.227 178.330 M 286.211 184.093 C 276.312 192.223, 275.141 193.507, 276.347 194.909 C 278.612 197.541, 310.121 237.351, 311.569 239.409 C 312.521 240.764, 313.287 241.031, 314.206 240.328 C 314.918 239.784, 320.113 235.639, 325.752 231.118 L 336.004 222.898 333.252 219.449 C 331.738 217.552, 330.124 216, 329.666 216 C 329.207 216, 326.197 218.069, 322.979 220.598 C 319.760 223.127, 316.713 224.941, 316.208 224.629 C 314.884 223.810, 306.643 212.998, 307.109 212.690 C 307.324 212.547, 309.646 210.721, 312.269 208.633 L 317.038 204.835 313.924 200.904 L 310.810 196.973 306.016 200.986 C 303.380 203.194, 301.014 205, 300.759 205 C 300.504 205, 298.191 202.322, 295.620 199.050 L 290.945 193.099 296.965 188.300 C 300.275 185.660, 302.975 183.050, 302.965 182.500 C 302.955 181.950, 301.708 180.008, 300.195 178.184 L 297.444 174.868 286.211 184.093 M 984.652 202.844 L 980.988 206.596 984.494 209.994 C 986.422 211.863, 988 213.715, 988 214.109 C 988 214.503, 980.688 222.793, 971.750 232.531 C 962.813 242.270, 955.341 250.661, 955.147 251.177 C 954.725 252.301, 957.496 255.500, 961.142 258.099 L 963.785 259.983 980.494 241.491 C 989.685 231.321, 997.496 223.018, 997.852 223.041 C 998.208 223.063, 1000.056 224.411, 1001.957 226.036 L 1005.414 228.991 1008.707 225.799 C 1010.518 224.044, 1011.959 222.133, 1011.908 221.554 C 1011.858 220.974, 1006.529 215.683, 1000.066 209.796 L 988.316 199.093 984.652 202.844 M 499.388 219.591 C 498.910 221.494, 499.303 222.747, 500.865 224.309 C 502.927 226.372, 503.046 226.380, 504.746 224.598 C 506.096 223.184, 506.197 222.648, 505.185 222.275 C 504.462 222.008, 503.461 220.712, 502.960 219.395 C 501.769 216.262, 500.202 216.348, 499.388 219.591 M 227.500 240.421 C 224.468 241.778, 219.683 246.433, 216.651 250.973 C 214.617 254.018, 214.516 260.163, 216.437 263.879 C 218.103 267.101, 243.237 290.027, 248.519 293.144 C 254.977 296.954, 262.105 294.080, 268.052 285.267 C 275.057 274.888, 274.397 272.322, 261.677 260.495 L 252.500 251.962 246.604 258.033 L 240.708 264.103 244.045 267.546 L 247.382 270.990 249.492 269.008 L 251.601 267.026 256.403 271.902 C 260.152 275.708, 261.058 277.241, 260.535 278.890 C 259.442 282.332, 256.315 283.437, 253.285 281.451 C 247.912 277.931, 227 257.726, 227 256.056 C 227 254.057, 230.014 251, 231.984 251 C 232.714 251, 234.856 252.178, 236.743 253.618 L 240.175 256.235 244.084 252.418 L 247.992 248.602 245.246 245.709 C 241.917 242.203, 235.909 238.986, 232.790 239.039 C 231.530 239.061, 229.150 239.683, 227.500 240.421 M 503.174 255.250 C 501.502 260.788, 499.689 276.759, 500.514 278.678 C 500.945 279.680, 501.184 281.625, 501.045 283 C 500.750 285.911, 498.296 291, 497.186 291 C 496.261 291, 490.522 284.155, 486.287 278 C 484.584 275.525, 481.657 272.031, 479.783 270.236 L 476.375 266.972 474.083 269.412 C 471.798 271.844, 472.054 274.577, 474.479 273.646 C 476.100 273.024, 478 274.886, 478 277.097 C 478 278.694, 486.416 286.661, 495.604 293.764 C 507.645 303.073, 524.009 310.702, 514.796 302.712 C 511.805 300.120, 511.285 299.163, 512.095 297.750 C 513.556 295.205, 514.813 295.604, 515.245 298.750 C 515.603 301.351, 515.745 301.242, 517.862 296.743 C 520.932 290.217, 523.435 278.133, 522.618 273.779 C 521.623 268.472, 514.808 258.652, 509.665 255.114 C 507.176 253.401, 504.918 252, 504.647 252 C 504.377 252, 503.714 253.463, 503.174 255.250 M 463.031 257.463 C 461.423 259.400, 462.113 262.398, 464.261 262.812 C 465.602 263.070, 466 262.457, 466 260.132 C 466 256.590, 464.714 255.434, 463.031 257.463 M 1033.867 276.750 C 1024.805 284.313, 1014.409 292.975, 1010.763 296 C 1007.117 299.025, 1004.118 301.950, 1004.097 302.500 C 1004.076 303.050, 1005.755 305.461, 1007.828 307.858 L 1011.595 312.216 1034.048 293.469 C 1046.396 283.158, 1056.904 274.358, 1057.398 273.913 C 1057.905 273.457, 1056.619 270.907, 1054.442 268.052 C 1052.323 265.274, 1050.533 263, 1050.465 263 C 1050.397 263, 1042.928 269.188, 1033.867 276.750 M 515.975 277.565 C 513.878 283.082, 515.571 289.538, 517.950 285.094 C 519.299 282.573, 519.318 275, 517.975 275 C 517.412 275, 516.512 276.154, 515.975 277.565 M 436.028 282.946 C 433.830 287.254, 434.464 288.424, 438.454 287.422 C 441.356 286.694, 441.489 286.230, 439.537 283.653 C 438.767 282.637, 438.380 281.174, 438.676 280.403 C 439.833 277.387, 437.932 279.213, 436.028 282.946 M 447.465 280.057 C 446.446 281.705, 447.805 285.711, 449.618 286.407 C 452.989 287.701, 455.467 282.867, 452.800 280.200 C 451.317 278.717, 448.342 278.637, 447.465 280.057 M 454.385 308.534 C 452.278 311.751, 453.593 313.390, 456.932 311.711 C 460.141 310.098, 460.571 308.376, 458.095 307.051 C 456.391 306.139, 455.800 306.375, 454.385 308.534 M 167.024 319.247 C 162.098 326.988, 161.958 327.397, 163.691 329.008 C 175.661 340.133, 193.773 356.790, 199.335 361.788 L 206.333 368.075 209.319 363.486 L 212.304 358.896 208.648 355.151 L 204.991 351.406 207.973 346.703 C 209.614 344.116, 211.209 342, 211.518 342 C 211.827 342, 213.905 342.931, 216.137 344.070 C 218.368 345.208, 220.302 345.996, 220.435 345.820 C 220.567 345.644, 222.118 343.365, 223.881 340.757 L 227.087 336.013 221.419 333.507 C 218.302 332.128, 215.604 331, 215.425 331 C 215.123 331, 201.732 324.879, 180.833 315.187 L 172.167 311.168 167.024 319.247 M 499.411 317.500 C 501.072 327.076, 508.517 337.243, 516.215 340.450 C 519.717 341.909, 519.990 341.888, 520.959 340.077 C 521.524 339.020, 522.736 337.407, 523.651 336.491 C 525.204 334.939, 525.120 334.663, 522.408 332.388 C 520.809 331.047, 516.920 328.149, 513.766 325.948 C 510.612 323.748, 507.012 320.933, 505.766 319.694 C 504.520 318.455, 502.424 316.555, 501.109 315.471 L 498.717 313.500 499.411 317.500 M 1080.927 328.876 C 1075.112 332.519, 1064.312 339.283, 1056.927 343.906 C 1049.542 348.529, 1042.954 352.804, 1042.287 353.406 C 1041.351 354.250, 1041.694 355.469, 1043.787 358.743 C 1045.279 361.076, 1046.744 362.989, 1047.042 362.993 C 1047.339 362.997, 1053.977 358.962, 1061.792 354.027 C 1069.606 349.093, 1076 345.247, 1076 345.481 C 1076 345.716, 1070.862 352.281, 1064.581 360.071 L 1053.163 374.235 1056.204 379.177 C 1058.101 382.261, 1059.756 383.924, 1060.602 383.599 C 1063.573 382.459, 1108.270 353.461, 1108.672 352.412 C 1109.171 351.112, 1105.205 344, 1103.980 344 C 1103.092 344, 1089.256 352.409, 1082.096 357.300 C 1076.720 360.972, 1077.008 360.477, 1088.834 345.712 L 1098.276 333.923 1095.498 328.712 C 1093.970 325.845, 1092.445 323.219, 1092.110 322.876 C 1091.774 322.533, 1086.742 325.233, 1080.927 328.876 M 185.527 334.074 C 189.362 337.965, 193.699 342.019, 195.164 343.081 L 197.828 345.014 199.914 341.639 C 201.061 339.783, 202 338.035, 202 337.755 C 202 337.475, 199.637 336.231, 196.750 334.991 C 193.863 333.751, 188.833 331.445, 185.573 329.868 C 182.313 328.291, 179.400 327, 179.100 327 C 178.799 327, 181.692 330.184, 185.527 334.074 M 440.131 341.649 C 438.517 347.863, 438.462 348.485, 439.507 348.784 C 440.419 349.044, 442.296 338.963, 441.486 338.153 C 441.291 337.958, 440.681 339.531, 440.131 341.649 M 548 354.414 C 548 354.861, 559.692 364.196, 561.750 365.392 C 564.759 367.140, 562.498 364.735, 556.283 359.576 C 550.255 354.573, 548 353.167, 548 354.414 M 440.957 368.611 C 440.353 370.200, 437.345 379.600, 434.273 389.500 C 428.406 408.405, 427.079 411.141, 424.726 409.187 C 423.609 408.261, 423.015 409.111, 421.565 413.712 C 420.042 418.543, 419.884 421.337, 420.492 432.688 C 420.884 440.010, 421.551 446, 421.974 446 C 422.396 446, 423.047 443.637, 423.419 440.750 C 424.699 430.816, 429.015 413.449, 436.009 390.092 C 439.864 377.218, 442.802 366.468, 442.537 366.204 C 442.272 365.939, 441.562 367.023, 440.957 368.611 M 127.016 392.698 C 125.873 395.281, 125.124 397.869, 125.353 398.448 C 125.581 399.026, 130.320 401.492, 135.884 403.926 C 141.448 406.360, 146 408.740, 146 409.216 C 146 409.691, 145.100 411.843, 144.001 413.998 L 142.002 417.917 135.251 414.852 C 131.538 413.166, 126.658 410.981, 124.408 409.996 L 120.315 408.206 117.688 413.563 C 116.243 416.509, 115.465 419.170, 115.959 419.475 C 117.893 420.670, 168.475 443, 169.249 443 C 170.034 443, 174 434.691, 174 433.045 C 174 432.612, 169.162 430.112, 163.250 427.491 C 157.338 424.870, 152.350 422.599, 152.166 422.446 C 151.983 422.292, 152.745 420.105, 153.859 417.586 C 156.187 412.323, 154.987 412.222, 169.408 418.895 C 174.308 421.162, 178.416 422.901, 178.538 422.758 C 178.660 422.616, 179.913 420.203, 181.322 417.396 L 183.885 412.293 157.079 400.146 C 142.336 393.466, 130.008 388, 129.683 388 C 129.359 388, 128.159 390.114, 127.016 392.698 M 384.924 400.581 C 382.087 403.600, 381.577 410.973, 383.905 415.322 C 385.525 418.350, 390.936 420.484, 394.638 419.555 C 398.663 418.544, 402 414.249, 402 410.076 C 402 405.485, 399.505 401.705, 396.999 402.500 C 395.992 402.820, 394.879 402.613, 394.525 402.041 C 393.547 400.458, 389.882 400.797, 387.823 402.661 C 386.813 403.574, 385.680 404.013, 385.303 403.637 C 384.182 402.515, 387.534 399.850, 391.139 398.999 L 394.500 398.205 390.924 398.102 C 388.290 398.027, 386.711 398.679, 384.924 400.581 M 1119.373 415.862 C 1114.353 418.012, 1105.530 422.045, 1099.765 424.826 C 1090.947 429.079, 1089.024 430.430, 1087.642 433.342 C 1085.496 437.864, 1085.568 439.764, 1088.151 446.712 C 1090.975 454.308, 1095.817 459, 1100.833 459 C 1103.709 459, 1123.966 451.368, 1125.704 449.629 C 1126.016 449.317, 1120.301 434.968, 1119.576 434.243 C 1119.366 434.033, 1117.309 434.822, 1115.005 435.997 C 1111.509 437.781, 1110.911 438.509, 1111.387 440.406 C 1111.875 442.349, 1111.258 443.006, 1107.126 444.941 C 1101.277 447.680, 1098.854 447.370, 1097.570 443.719 C 1096.778 441.466, 1096.958 440.626, 1098.549 439.160 C 1101.435 436.502, 1130.530 423.883, 1132.251 424.543 C 1134.172 425.280, 1136.106 429.559, 1135.378 431.458 C 1135.065 432.273, 1133.050 433.716, 1130.899 434.665 C 1126.693 436.520, 1126.682 436.601, 1129.656 443.719 C 1131.224 447.471, 1132.051 447.483, 1139.235 443.859 C 1146.981 439.951, 1148.544 432.140, 1143.640 421.848 C 1138.655 411.385, 1133.054 410.004, 1119.373 415.862 M 383.035 427.934 C 381.960 429.943, 381.600 435, 382.532 435 C 384.578 435, 390 431.829, 390 430.633 C 390 425.987, 385.095 424.086, 383.035 427.934 M 682.604 437.590 C 681.845 439.568, 682.666 441, 684.559 441 C 685.429 441, 686 440.010, 686 438.500 C 686 435.704, 683.577 435.054, 682.604 437.590 M 392.575 441.059 C 391.516 442.127, 390.054 443, 389.325 443 C 388.596 443, 388 443.605, 388 444.345 C 388 445.935, 391.164 449, 392.806 449 C 394.837 449, 397.265 444.193, 396.591 441.507 C 395.846 438.539, 395.152 438.462, 392.575 441.059 M 688.257 444.961 C 685.863 448.794, 682.376 450.322, 678.767 449.119 L 675.500 448.029 677.889 450.038 C 679.440 451.341, 681.020 451.827, 682.389 451.422 C 685.164 450.601, 690.343 445.530, 689.867 444.101 C 689.658 443.475, 688.947 443.854, 688.257 444.961 M 398.183 449.210 C 396.322 453.781, 393.280 456.220, 390.977 454.988 C 389.890 454.406, 389 454.124, 389 454.362 C 389 455.458, 395.471 466.982, 398.446 471.185 C 400.395 473.938, 403.303 480.638, 405.500 487.435 C 407.556 493.796, 409.438 499, 409.681 499 C 410.697 499, 407.889 484.579, 400.529 452 C 399.323 446.663, 399.253 446.580, 398.183 449.210 M 1050.220 487.186 C 1047.991 491.759, 1045.456 498.260, 1044.587 501.633 C 1043.065 507.535, 1043.097 508.169, 1045.426 518.473 C 1046.757 524.361, 1048.096 529.429, 1048.402 529.736 C 1049.164 530.498, 1056.348 525.642, 1061.543 520.853 L 1065.819 516.912 1062.986 506.112 C 1059.108 491.333, 1055.886 480.661, 1055.006 479.686 C 1054.603 479.239, 1052.449 482.614, 1050.220 487.186 M 382.618 488.250 C 383.447 493, 385.128 498.205, 385.661 497.673 C 386.376 496.958, 383.700 485, 382.825 485 C 382.399 485, 382.305 486.462, 382.618 488.250 M 312.500 503.902 C 302.850 506.321, 295.773 509.583, 293.995 512.431 C 293.173 513.749, 291.224 516.421, 289.665 518.369 C 282.276 527.601, 276 561.495, 276 592.165 C 276 599.879, 275.645 603.899, 275 603.500 C 272.624 602.031, 275.178 555.792, 278.510 539.951 C 281.152 527.392, 285.714 517.990, 290.941 514.329 C 292.074 513.535, 293 512.453, 293 511.924 C 293 510.814, 270.795 525.485, 265.686 529.971 C 263.517 531.875, 261.806 534.622, 261.004 537.486 C 259.475 542.946, 257.888 543.479, 258.729 538.250 C 259.234 535.114, 259.100 534.679, 257.916 535.595 C 257.137 536.198, 249.300 542.434, 240.500 549.453 L 224.500 562.215 223.230 568.358 C 222.507 571.851, 221.695 586.162, 221.346 601.539 C 220.772 626.819, 220.914 630.234, 223.539 654.039 C 225.082 668.043, 226.449 679.644, 226.575 679.819 C 226.927 680.307, 241.828 671.144, 247.707 666.825 C 254.317 661.970, 256.849 658.786, 265.607 644.314 L 272.715 632.570 267.607 630.717 C 263.853 629.356, 260.963 629.013, 256.697 629.423 C 253.372 629.742, 251.131 629.597, 251.449 629.083 C 252.413 627.522, 266.296 622.206, 271.361 621.458 C 274.980 620.923, 276.434 621.085, 277.056 622.091 C 277.515 622.834, 278.074 623.230, 278.298 622.971 C 279.424 621.668, 287.174 607.647, 290.165 601.500 C 293.514 594.617, 293.560 594.349, 292.864 585.500 C 291.651 570.076, 295.799 542.515, 300.944 531.806 L 303.013 527.500 302.481 531.500 C 300.814 544.019, 300.062 558.760, 300.630 567.778 C 300.986 573.431, 301.491 577.843, 301.753 577.581 C 302.985 576.348, 317.959 542.577, 320.411 535.500 C 321.935 531.100, 323.775 526.375, 324.500 525 C 326.293 521.596, 329 510.890, 329 507.203 C 329 504.729, 328.442 504.001, 325.851 503.098 C 321.877 501.713, 321.030 501.764, 312.500 503.902 M 745.250 531.010 C 741.813 534.277, 739 537.139, 739 537.369 C 739 537.600, 740.331 539.214, 741.958 540.955 L 744.916 544.122 748.958 536.083 C 752.838 528.366, 753.853 524.960, 752.250 525.035 C 751.837 525.054, 748.688 527.743, 745.250 531.010 M 725 548.070 C 701.043 567.629, 690.900 578.936, 683.351 594.500 C 677.488 606.589, 676.250 612.745, 678.051 620.865 C 679.367 626.793, 679.564 627.078, 681.968 626.516 C 688.712 624.941, 697.615 619.389, 705.249 611.997 C 713.093 604.402, 713.251 604.154, 712.567 600.505 C 711.716 595.967, 712.935 578.842, 714.060 579.537 C 714.793 579.990, 716.664 595.487, 716.198 597.250 C 716.089 597.663, 716.407 598, 716.905 598 C 718.376 598, 726.942 582.792, 735.175 565.562 L 742.850 549.500 740.008 546.500 C 738.445 544.850, 737.016 542.416, 736.833 541.091 C 736.524 538.858, 735.656 539.371, 725 548.070 M 258.626 556.791 C 253.829 571.974, 252.469 594.695, 255.892 602.450 C 257.239 605.503, 257.842 606.070, 258.549 604.950 C 259.051 604.152, 259.761 593.150, 260.126 580.500 C 260.491 567.850, 261.024 556.825, 261.311 556 C 262.607 552.276, 262.958 549, 262.063 549 C 261.526 549, 259.979 552.506, 258.626 556.791 M 1067.471 559.737 C 1064.757 563.456, 1060.647 568.538, 1058.338 571.029 L 1054.140 575.558 1055.090 586.029 C 1055.613 591.788, 1056.088 605.438, 1056.147 616.362 L 1056.253 636.224 1060.876 635.651 C 1063.419 635.335, 1068.370 634.770, 1071.879 634.395 L 1078.258 633.713 1077.707 609.606 C 1077.192 587.034, 1074.707 557.085, 1073.113 554.237 C 1072.646 553.404, 1070.725 555.277, 1067.471 559.737 M 240.548 562.907 C 239.668 564.608, 238.522 570.388, 238 575.750 C 236.842 587.655, 236.841 618.118, 237.998 613 C 239.740 605.301, 241 594.572, 241 587.442 C 241 583.306, 241.480 575.619, 242.066 570.360 C 242.652 565.101, 242.911 560.577, 242.640 560.307 C 242.369 560.036, 241.428 561.206, 240.548 562.907 M 203.172 578.695 C 197.931 582.506, 196.957 583.658, 197.503 585.398 C 200.231 594.103, 199.246 597.842, 192.312 605.112 L 186.771 610.921 187.428 625.210 C 188.536 649.323, 190.999 672.495, 194.071 687.700 L 195.121 692.901 203.811 689.842 C 216.893 685.237, 215.897 686.511, 214.405 676.298 C 210.984 652.879, 209.633 632.020, 209.672 603.250 C 209.694 587.163, 209.664 574.021, 209.606 574.047 C 209.548 574.073, 206.652 576.165, 203.172 578.695 M 363.839 590.601 C 361.880 593.296, 357.743 598.650, 354.644 602.500 C 351.546 606.350, 349.028 609.950, 349.048 610.500 C 349.107 612.134, 362.852 597.109, 365.622 592.382 C 369.304 586.099, 368.035 584.831, 363.839 590.601 M 779.413 595.646 C 779.081 596.666, 777.952 599.608, 776.905 602.185 C 773.291 611.076, 774.580 611.912, 780 604.194 C 784.923 597.184, 785.892 595, 784.082 595 C 783.577 595, 782.456 594.728, 781.590 594.396 C 780.588 594.012, 779.798 594.465, 779.413 595.646 M 806.609 605.072 C 800.774 611.161, 796 616.489, 796 616.911 C 796 617.333, 798.738 617.263, 802.085 616.757 C 807.591 615.923, 810.139 616.194, 808.856 617.477 C 808.594 617.739, 804.132 619.403, 798.940 621.173 C 793.748 622.944, 789.282 624.560, 789.015 624.765 C 788.748 624.969, 789.648 625.996, 791.015 627.046 C 793.341 628.833, 793.369 628.957, 791.450 628.978 C 790.322 628.990, 788.901 628.501, 788.292 627.892 C 787.482 627.082, 785.382 629.084, 780.471 635.353 C 770.008 648.709, 764.068 658.802, 763.906 663.500 C 763.830 665.700, 763.562 666.712, 763.311 665.750 C 763.059 664.788, 762.539 664, 762.154 664 C 761.421 664, 750.798 686.131, 751.293 686.626 C 751.580 686.914, 778.214 680.922, 778.833 680.431 C 779.017 680.286, 778.168 679.168, 776.947 677.947 C 774.823 675.823, 774.760 675.266, 775.498 665.113 C 775.923 659.276, 776.320 652.417, 776.381 649.871 L 776.491 645.242 783.394 644.600 C 791.803 643.818, 793.316 644.838, 795.648 652.861 C 796.817 656.883, 797.124 660.973, 796.785 668.010 L 796.321 677.650 802.556 676.159 L 808.790 674.667 809.185 664.083 C 809.436 657.363, 810.087 652.714, 810.970 651.346 C 811.735 650.162, 815.202 647.012, 818.675 644.346 C 824.025 640.240, 824.904 639.133, 824.437 637.096 C 824.133 635.774, 824.415 633.412, 825.064 631.846 C 826.226 629.041, 827.752 628.453, 832.750 628.882 C 835.469 629.116, 835.636 627.886, 833.186 625.669 C 831.825 624.437, 831.087 624.313, 830.229 625.171 C 829.370 626.030, 828.700 625.996, 827.542 625.035 C 825.715 623.519, 825.539 620.861, 827.158 619.242 C 828.036 618.364, 827.456 616.196, 824.765 610.292 C 822.811 606.006, 820.643 600.587, 819.948 598.250 C 819.252 595.913, 818.354 594, 817.951 594 C 817.548 594, 812.444 598.982, 806.609 605.072 M 684 610.372 C 684 610.576, 685.099 613.164, 686.442 616.122 C 688.331 620.280, 688.897 620.933, 688.939 619 C 688.968 617.625, 688.101 615.038, 687.011 613.250 C 685.281 610.413, 684 609.188, 684 610.372 M 733.577 626.573 C 727.220 635.883, 727.014 636.373, 728.494 638.631 C 729.342 639.926, 730.318 643.039, 730.662 645.549 C 731.006 648.059, 731.597 649.750, 731.975 649.306 C 733.659 647.330, 741.442 618.109, 740.528 617.194 C 740.349 617.016, 737.222 621.236, 733.577 626.573 M 316.143 624.626 C 313.820 628.270, 312.091 631.425, 312.302 631.636 C 312.715 632.049, 323.005 628.082, 324.254 627.028 C 324.893 626.489, 321.513 618, 320.660 618 C 320.499 618, 318.466 620.982, 316.143 624.626 M 902.776 623.250 C 899.650 625.587, 893.134 629.525, 888.296 632 C 883.458 634.475, 879.279 636.646, 879.008 636.825 C 878.738 637.004, 879.300 637.589, 880.258 638.125 C 882.687 639.484, 882.445 642, 879.887 642 C 878.034 642, 877.854 642.402, 878.429 645.250 C 878.790 647.038, 879.345 651.340, 879.663 654.811 C 880.119 659.793, 880.549 661.003, 881.702 660.561 C 882.506 660.252, 884.079 660, 885.198 660 C 887.077 660, 887.201 659.505, 886.822 653.548 C 886.491 648.351, 886.663 647.305, 887.706 648.171 C 888.441 648.781, 889 651.351, 889 654.122 C 889 659.690, 888.542 659.536, 899.413 657.630 L 906.326 656.417 906.413 651.620 C 906.497 646.964, 906.615 646.783, 910.409 645.474 C 912.559 644.733, 915.196 643.248, 916.269 642.175 C 918.908 639.537, 919.573 632.473, 917.616 627.870 C 916.223 624.591, 910.888 619, 909.154 619 C 908.772 619, 905.903 620.913, 902.776 623.250 M 901 626.535 C 901 627.675, 904.277 632, 905.141 632 C 905.642 632, 905.353 630.650, 904.500 629 C 903.165 626.419, 901 624.894, 901 626.535 M 829.598 637.545 C 828.748 638.395, 827.613 640.757, 827.074 642.795 C 825.625 648.284, 821.847 671.180, 822.314 671.647 C 822.535 671.869, 826.111 671.304, 830.260 670.392 C 839.034 668.464, 838.520 669.447, 839.616 652.499 C 840.210 643.305, 840.513 641.995, 841.900 642.604 C 842.780 642.991, 845.525 643.575, 848 643.903 C 852.489 644.498, 852.500 644.510, 852.478 648.500 C 852.467 650.700, 852.114 655.561, 851.695 659.302 L 850.934 666.103 854.717 665.420 C 856.798 665.045, 858.837 664.545, 859.250 664.310 C 859.663 664.074, 860 659.694, 860 654.576 C 860 646.675, 860.313 644.872, 862.073 642.635 L 864.145 640 861.783 640 C 860.483 640, 856.961 639.359, 853.954 638.576 C 850.627 637.710, 847.122 637.433, 844.994 637.870 C 842.885 638.303, 840.113 638.092, 838 637.337 C 833.302 635.660, 831.437 635.706, 829.598 637.545 M 711.855 652.131 C 706.437 657.657, 704.543 660.209, 705.355 660.891 C 705.985 661.421, 707.326 663.402, 708.336 665.295 L 710.173 668.736 707.586 671.323 C 704.045 674.864, 703.869 681, 707.309 681 C 708.579 681, 710.491 680.339, 711.559 679.532 C 714.273 677.479, 716 677.652, 716 679.977 C 716 682.770, 711.737 685.223, 705.910 685.783 L 700.935 686.261 701.717 681.880 C 702.682 676.480, 702.739 664.406, 701.804 663.471 C 701.426 663.093, 698.953 664.603, 696.308 666.828 C 691.015 671.281, 681.764 675.975, 678.250 675.990 C 676.139 675.999, 676 676.418, 676.006 682.750 C 676.010 686.633, 676.617 690.659, 677.436 692.229 C 678.429 694.132, 678.682 696.680, 678.273 700.646 C 677.744 705.767, 677.859 706.268, 679.425 705.667 C 680.381 705.300, 681.816 705, 682.614 705 C 683.412 705, 684.471 703.987, 684.969 702.750 C 685.673 700.997, 685.887 700.891, 685.937 702.269 C 685.984 703.599, 686.558 703.894, 688.250 703.458 C 704.267 699.330, 703.488 699.700, 703.666 696.143 C 703.862 692.243, 704.765 691.002, 705.978 692.965 C 706.722 694.169, 707.090 694.170, 708.529 692.976 C 711.341 690.642, 717.844 680.472, 721.941 671.999 C 725.766 664.089, 725.800 663.918, 724.542 658.743 C 721.852 647.680, 720.741 644.006, 720.131 644.166 C 719.784 644.258, 716.060 647.842, 711.855 652.131 M 238.200 646.200 C 236.700 647.700, 236.643 650.661, 238.096 651.559 C 239.860 652.649, 242.294 649.501, 241.535 647.112 C 240.773 644.709, 239.923 644.477, 238.200 646.200 M 864.762 650.250 C 863.649 651.108, 863.040 653.460, 862.820 657.752 C 862.644 661.190, 862.725 663.975, 863 663.940 C 863.275 663.905, 866.425 663.309, 870 662.614 L 876.500 661.352 876.242 656.426 C 875.948 650.819, 874.296 649, 869.500 649 C 867.785 649, 865.653 649.563, 864.762 650.250 M 801 660.500 C 801 662.425, 801.450 664, 802 664 C 802.550 664, 803 662.425, 803 660.500 C 803 658.575, 802.550 657, 802 657 C 801.450 657, 801 658.575, 801 660.500 M 1063 674.733 C 1057.775 675.566, 1053.435 676.304, 1053.354 676.373 C 1053.274 676.443, 1051.796 684.150, 1050.068 693.500 C 1043.190 730.732, 1031.430 767.561, 1016.541 798.500 L 1013.172 805.500 1013.086 797.473 C 1012.987 788.233, 1011.464 785.006, 1007.193 784.989 C 1005.712 784.983, 1002.768 784.692, 1000.651 784.342 L 996.802 783.706 997.151 743.603 L 997.500 703.500 995 698.500 C 993.168 694.836, 991.338 692.864, 988.150 691.120 L 983.801 688.740 962.292 694.098 L 940.784 699.456 949.642 701.577 C 963.022 704.780, 969.824 706.907, 970.574 708.120 C 971.038 708.870, 970.299 709.005, 968.223 708.549 C 966.558 708.183, 956.716 706.623, 946.352 705.082 L 927.508 702.281 919.004 704.241 C 914.327 705.320, 910.004 706.827, 909.398 707.590 C 908.792 708.353, 906.542 709.040, 904.398 709.115 C 902.254 709.191, 895.694 710.364, 889.819 711.723 L 879.138 714.195 878.562 720.347 C 878.245 723.731, 877.840 728.300, 877.661 730.500 C 877.482 732.700, 877.261 730.082, 877.168 724.683 C 877.002 714.999, 876.969 714.874, 874.750 715.545 C 873.513 715.919, 872.220 716.512, 871.877 716.862 C 871.534 717.213, 870.219 726.434, 868.953 737.353 C 867.445 750.358, 866.170 757.688, 865.254 758.603 C 864.268 759.589, 861.248 760, 854.985 760 C 843.937 760, 843 759.098, 843 748.459 C 843 740.702, 844.877 733.158, 848.672 725.663 C 850.855 721.353, 850.924 720.885, 849.311 721.361 C 848.315 721.654, 844.575 722.621, 841 723.508 C 826.718 727.052, 827.157 726.860, 826.705 729.771 C 826.296 732.410, 826.257 732.426, 825.524 730.250 C 824.590 727.476, 824.959 727.468, 813.743 730.490 C 808.659 731.860, 795.725 735.274, 785 738.077 C 757.308 745.313, 748.654 747.950, 747.425 749.526 C 746.819 750.302, 745.440 750.666, 744.268 750.360 C 743.123 750.060, 738.360 751.061, 733.684 752.584 L 725.183 755.353 725.722 758.676 C 726.067 760.800, 725.853 762, 725.131 762 C 724.509 762, 724 760.650, 724 759 C 724 757.350, 723.855 756, 723.678 756 C 723.501 756, 721.364 756.720, 718.928 757.600 C 714.919 759.048, 713.728 760.358, 706.332 771.460 C 700.219 780.636, 697.990 784.887, 697.469 788.360 C 696.702 793.474, 695.310 794.502, 694.816 790.319 C 694.522 787.823, 694.228 788.049, 690.574 793.569 C 688.414 796.831, 686.839 799.718, 687.074 799.984 C 687.702 800.696, 691.351 799.970, 692.450 798.914 C 694.268 797.165, 694.500 798.051, 694.500 806.749 C 694.500 811.562, 694.912 816.356, 695.416 817.403 C 696.289 819.219, 695.968 819.274, 688.416 818.606 C 677.879 817.674, 672.685 816.263, 673.356 814.514 C 673.728 813.545, 672.957 813.132, 670.690 813.087 C 663.905 812.951, 655 811.786, 655 811.033 C 655 810.599, 655.681 808.614, 656.514 806.621 C 657.347 804.627, 658.695 799.735, 659.511 795.748 C 660.327 791.762, 661.229 787.487, 661.516 786.250 C 661.918 784.516, 661.597 784, 660.117 784 C 658.902 784, 657.829 782.948, 657.199 781.141 L 656.202 778.282 647.207 781.359 L 638.212 784.435 637.606 788.857 C 637.273 791.289, 637 797.405, 637 802.447 L 637 811.615 624.250 814.744 C 617.237 816.465, 607 818.601, 601.500 819.490 C 582.439 822.573, 561.645 830.968, 555.947 837.881 C 548.549 846.855, 543.146 864.138, 542.301 881.527 C 541.648 894.984, 542.710 903.336, 546.574 915.110 C 551.141 929.030, 557.783 936.442, 568.436 939.511 C 581.805 943.363, 628.283 940.095, 676 931.949 C 689.981 929.562, 693.802 928.566, 695 926.998 C 697.273 924.023, 714.267 923.063, 722.468 925.448 C 729.154 927.391, 739.315 932.307, 747.597 937.605 C 755.566 942.703, 768.518 948.697, 775.332 950.441 C 786.162 953.212, 801.664 954.294, 821 953.626 C 844.891 952.801, 861.645 950.885, 883.558 946.474 C 893.285 944.516, 901.647 943.049, 902.140 943.213 C 903.230 943.577, 886.681 956.631, 871.564 967.333 C 815.658 1006.912, 746.745 1032.586, 676 1040.193 C 661.319 1041.771, 617.407 1041.745, 600.500 1040.148 C 529.133 1033.406, 458.340 1007.433, 399.259 966.316 C 383.691 955.481, 363.790 939.449, 351.754 928.046 L 342.008 918.812 326.795 918.949 C 318.427 919.024, 311.338 919.343, 311.041 919.658 C 310.176 920.574, 340.316 949.193, 354 960.450 C 422.634 1016.914, 496.993 1049.299, 585.386 1061.225 C 607.438 1064.200, 661.688 1064.464, 684 1061.706 C 750.909 1053.433, 819.346 1028.055, 875.500 990.692 C 919.321 961.536, 957.359 926.833, 986.800 889.151 C 997.752 875.133, 1016.185 847.361, 1023.977 833.138 C 1048.119 789.069, 1066.288 735.722, 1073.506 687.710 C 1074.350 682.094, 1075.194 676.487, 1075.382 675.250 C 1075.779 672.629, 1076.118 672.643, 1063 674.733 M 312 706.083 C 299.175 710.600, 286.008 716.750, 279.081 721.458 C 275 724.231, 271.506 726.970, 271.316 727.545 C 270.933 728.702, 279.354 728.059, 301.986 725.202 L 315.471 723.500 318.084 713.750 C 321.066 702.623, 321.232 702.832, 312 706.083 M 901.743 715.590 C 900.005 717.328, 901.085 741.600, 903.529 755.748 C 904.240 759.867, 908.446 762.231, 914.306 761.805 L 918.500 761.500 918.777 746.622 C 919.086 730.054, 918.309 727.077, 911.731 719.633 C 908.627 716.121, 903.349 713.985, 901.743 715.590 M 990.015 754.750 C 990.025 773.682, 990.362 782.988, 991 782 C 992.330 779.942, 992.330 726, 991 726 C 990.356 726, 990.005 736.240, 990.015 754.750 M 921.262 737 C 921.254 744.561, 921.449 746.272, 921.961 743.114 C 922.351 740.701, 922.356 735.976, 921.972 732.614 C 921.361 727.267, 921.272 727.817, 921.262 737 M 973.876 729.500 C 972.736 731.328, 972.010 748.416, 972.836 754 L 973.649 759.500 974.381 755 C 975.231 749.769, 974.801 728.018, 973.876 729.500 M 804.512 737.184 C 803.169 742.746, 802.338 756.607, 803.242 758.372 C 804.046 759.942, 804.933 760.144, 808.740 759.622 C 811.237 759.280, 816.141 759, 819.640 759 C 825.801 759, 826 758.920, 826 756.434 C 826 755.023, 825.508 752.950, 824.907 751.827 C 824.117 750.350, 824.117 749.483, 824.907 748.693 C 826.276 747.324, 826.352 741, 825 741 C 823.948 741, 823.560 742.996, 823.882 746.750 C 824.138 749.730, 822.445 749.608, 820.408 746.500 C 818.478 743.555, 817.328 743.393, 814.770 745.708 C 811.849 748.352, 809.601 746.286, 809 740.407 C 808.635 736.834, 808.039 735.430, 806.786 735.192 C 805.674 734.981, 804.875 735.681, 804.512 737.184 M 752.750 760.548 C 752.337 760.980, 752 762.811, 752 764.617 L 752 767.901 776.582 768.200 C 799.572 768.481, 801.256 768.626, 802.582 770.441 C 804.366 772.883, 804.414 778.052, 802.674 780.431 C 801.465 782.085, 799.649 782.228, 781.958 782.065 C 769.390 781.948, 762.093 781.492, 761.220 780.767 C 760.395 780.083, 759.984 778.099, 760.161 775.650 C 760.458 771.534, 759.110 769.942, 757.252 772.217 C 756.506 773.129, 756.738 775.215, 758.053 779.441 C 759.284 783.397, 760.246 791.250, 760.932 802.941 C 761.499 812.599, 762.243 821.492, 762.586 822.704 C 763.288 825.188, 764.987 825.530, 781.293 826.478 C 788.411 826.891, 793.523 826.579, 800.010 825.336 C 808.245 823.757, 809.011 823.407, 809.916 820.812 C 811.044 817.575, 810.792 817.435, 807.600 819.527 C 805.857 820.669, 804.621 820.807, 802.696 820.074 C 799.246 818.763, 798 816.126, 798 810.138 C 798 805.918, 798.413 804.820, 800.671 803.044 C 804.072 800.369, 805.838 801.791, 803.516 805.335 C 801.780 807.985, 801.762 812.693, 803.489 812.241 C 804.034 812.099, 804.528 811.424, 804.587 810.741 C 804.874 807.450, 805.104 807, 806.500 807 C 807.325 807, 808 807.675, 808 808.500 C 808 809.325, 808.384 810, 808.853 810 C 809.323 810, 809.998 806.737, 810.353 802.750 C 810.709 798.763, 811.675 792.350, 812.500 788.500 C 815.133 776.214, 814.194 770.453, 809.140 767.871 C 807.688 767.130, 805.036 765.393, 803.246 764.011 C 800.579 761.953, 798.867 761.496, 793.746 761.479 C 790.311 761.467, 779.850 761.076, 770.500 760.610 C 761.150 760.144, 753.163 760.116, 752.750 760.548 M 943 762.924 C 939.315 763.993, 951.493 766, 961.665 766 C 970.305 766, 971.939 765.434, 969.234 763.381 C 967.343 761.944, 947.566 761.600, 943 762.924 M 793.180 774.240 C 793.537 776.739, 796.831 777.892, 798.038 775.939 C 799.293 773.909, 797.978 772, 795.323 772 C 793.345 772, 792.924 772.440, 793.180 774.240 M 235.711 786.156 C 231.734 795.101, 230.125 799.854, 230.570 801.339 C 232.150 806.599, 254.739 846.956, 260.245 854.353 C 261.558 856.118, 262.113 855.962, 271.835 851.083 L 282.046 845.959 278.164 840.229 C 270.127 828.370, 255.348 802, 249.171 788.500 C 245.649 780.800, 242.481 774.193, 242.133 773.818 C 241.785 773.443, 238.895 778.995, 235.711 786.156 M 706.635 776.073 C 706.286 777.820, 706 780.444, 706 781.902 C 706 783.361, 705.267 785.601, 704.372 786.879 C 703.052 788.764, 702.942 789.893, 703.789 792.852 C 704.364 794.858, 705.122 798.975, 705.474 802 C 706.493 810.748, 708.273 818.176, 709.432 818.515 C 710.019 818.686, 711.850 819.058, 713.500 819.341 L 716.500 819.855 716.178 813.677 C 715.860 807.590, 717.123 802, 718.817 802 C 719.294 802, 720.191 803.696, 720.812 805.768 C 722.397 811.056, 727.760 820.694, 729.486 821.356 C 730.280 821.661, 734.326 822.218, 738.477 822.594 L 746.025 823.278 742.857 816.389 C 739.312 808.677, 737.358 806, 735.278 806 C 734.320 806, 734.070 806.644, 734.500 808 C 734.985 809.529, 734.680 810, 733.201 810 C 731.766 810, 730.434 808.135, 728.033 802.765 C 726.254 798.786, 724.569 794.121, 724.290 792.397 C 723.652 788.467, 726.416 782.386, 729.168 781.666 C 730.378 781.350, 730.914 780.670, 730.492 779.986 C 729.268 778.006, 724.664 779.923, 721.318 783.807 C 718.136 787.499, 718.134 787.499, 716.144 785.500 C 715.049 784.400, 713.512 781.250, 712.727 778.500 C 711.687 774.855, 710.755 773.418, 709.286 773.198 C 707.725 772.964, 707.128 773.612, 706.635 776.073 M 867.597 775.844 C 866.801 777.131, 868.847 783.628, 870.473 784.978 C 871.265 785.635, 872.382 785.882, 872.956 785.527 C 874.091 784.826, 874.370 779.127, 873.393 776.582 C 872.758 774.927, 868.498 774.385, 867.597 775.844 M 833.625 781.125 C 832.704 785.728, 832.865 794, 833.875 794 C 835.031 794, 836 788.929, 836 782.875 C 836 777.402, 834.579 776.355, 833.625 781.125 M 879.830 786 C 879.262 791.026, 879.522 791.878, 881.135 790.265 C 881.895 789.505, 881.943 787.973, 881.288 785.331 L 880.339 781.500 879.830 786 M 731 791.500 C 731 795.415, 732.363 796.059, 734.034 792.936 C 734.854 791.404, 734.832 790.502, 733.947 789.436 C 731.996 787.085, 731 787.783, 731 791.500 M 739.342 798.809 C 739.549 801.729, 740.254 804.654, 740.910 805.309 C 741.833 806.231, 741.945 805.484, 741.404 802 C 740.284 794.783, 738.907 792.653, 739.342 798.809 M 832.629 799 C 832.528 799.275, 832.458 800.850, 832.473 802.500 L 832.500 805.500 861 806.513 C 876.675 807.070, 892.875 807.431, 897 807.316 C 901.125 807.200, 922.159 806.950, 943.742 806.760 C 972.364 806.509, 983.307 806.093, 984.176 805.224 C 984.831 804.569, 985.172 803.860, 984.933 803.649 C 984.695 803.437, 973.925 802.746, 961 802.113 C 948.075 801.480, 928.725 800.460, 918 799.845 C 898.337 798.720, 832.970 798.072, 832.629 799 M 833 818 C 833 823.165, 833.257 824, 834.845 824 C 835.860 824, 837.480 823.128, 838.445 822.061 C 840.064 820.272, 840.076 819.946, 838.600 817.839 C 837.720 816.583, 837 814.755, 837 813.777 C 837 812.667, 836.250 812, 835 812 C 833.222 812, 833 812.667, 833 818 M 864.333 813.911 C 858.506 814.620, 855 817.154, 855 820.655 C 855 822.903, 855.306 823, 862.361 823 C 869.679 823, 869.720 822.985, 869.244 820.494 C 868.680 817.544, 870.476 815, 873.122 815 C 874.155 815, 875 814.550, 875 814 C 875 812.930, 872.554 812.910, 864.333 813.911 M 891.174 814.750 C 889.355 818.303, 889.061 823.809, 890.657 824.422 C 892.996 825.320, 896.934 825.105, 899.066 823.965 C 901.220 822.812, 901.685 818.148, 899.965 814.934 C 898.595 812.374, 892.457 812.245, 891.174 814.750 M 948.500 818.500 C 947.950 818.689, 945.250 819.179, 942.500 819.591 C 937.820 820.291, 937.692 820.384, 940.500 821.051 C 945.285 822.187, 951.428 822.095, 955.050 820.833 C 957.975 819.813, 958.151 819.569, 956.449 818.903 C 954.432 818.114, 950.248 817.902, 948.500 818.500 M 765.500 828.930 C 768.669 830.203, 782.680 831.241, 785.206 830.390 C 787.238 829.705, 787.044 829.532, 783.500 828.866 C 778.027 827.839, 762.917 827.892, 765.500 828.930 M 646 833.138 C 643.525 834.102, 640.487 834.916, 639.250 834.946 C 636.470 835.013, 636.228 837, 639 837 C 640.100 837, 641 837.430, 641 837.955 C 641 839.661, 633.898 840.296, 628.448 839.076 C 623.086 837.876, 616 838.465, 616 840.111 C 616 840.600, 616.920 841, 618.045 841 C 619.170 841, 621.216 842.125, 622.591 843.500 C 623.966 844.875, 625.993 846, 627.095 846 C 629.744 846, 634.620 848.567, 635.291 850.315 C 635.584 851.079, 637.898 851.988, 640.433 852.336 C 644.893 852.947, 645.188 852.821, 649.464 848.484 C 651.895 846.018, 654.198 844, 654.582 844 C 654.966 844, 655.864 844.788, 656.579 845.750 C 657.805 847.402, 657.975 847.405, 659.616 845.787 C 661.233 844.194, 661.237 844.028, 659.678 843.430 C 656.952 842.384, 657.759 841, 661.094 841 C 663.383 841, 664.328 841.539, 664.730 843.074 C 665.350 845.446, 666.863 845.286, 676 841.876 C 685.116 838.475, 686.279 837.946, 685.768 837.435 C 685.498 837.165, 684.052 837.410, 682.555 837.979 C 681.057 838.548, 679.429 838.765, 678.936 838.461 C 678.443 838.156, 674.098 837.219, 669.280 836.378 C 664.461 835.537, 658.265 834.069, 655.509 833.117 C 650.750 831.471, 650.275 831.472, 646 833.138 M 987.400 835.673 C 987.318 839.494, 986.785 840.789, 984.470 842.780 C 982.013 844.893, 980.879 845.159, 975.887 844.798 C 970.324 844.396, 970.172 844.450, 971.286 846.441 C 971.919 847.573, 973.140 852.655, 973.999 857.733 L 975.561 866.967 985.624 851.733 C 991.159 843.355, 996.443 835.263, 997.366 833.750 L 999.046 831 993.273 831 L 987.500 831.001 987.400 835.673 M 810.500 834.657 C 794.937 838.935, 775 846.981, 775 848.983 C 775 849.482, 776.237 850.484, 777.750 851.209 C 779.326 851.964, 780.500 853.340, 780.500 854.432 C 780.500 856.153, 779.794 856.313, 773.156 856.098 C 767.370 855.910, 765.408 856.226, 763.906 857.585 C 760.871 860.331, 761.616 860.998, 767.750 861.027 C 770.913 861.042, 777.775 861.498, 783 862.040 C 788.225 862.582, 797.450 863.132, 803.500 863.263 C 812.572 863.458, 814.500 863.245, 814.500 862.044 C 814.500 860.955, 811.652 860.163, 803.190 858.901 C 796.969 857.973, 791.626 856.960, 791.316 856.650 C 791.006 856.340, 791.012 855.411, 791.329 854.585 C 791.766 853.446, 793.064 853.190, 796.703 853.526 C 799.341 853.769, 805.017 854.241, 809.317 854.576 C 814.800 855.002, 817.299 855.616, 817.690 856.635 C 818.166 857.876, 818.506 857.852, 820.032 856.471 C 821.014 855.582, 822.363 853.538, 823.030 851.928 C 823.697 850.317, 824.859 849, 825.613 849 C 826.366 849, 827.549 848.081, 828.242 846.958 C 829.940 844.203, 837.265 840, 840.369 840 C 841.751 840, 843.160 839.550, 843.500 839 C 843.840 838.450, 846.004 837.968, 848.309 837.930 C 850.614 837.891, 853.381 837.515, 854.458 837.094 C 855.591 836.651, 850.113 836.051, 841.458 835.670 C 833.231 835.309, 823.350 834.809, 819.500 834.560 C 815.650 834.311, 811.600 834.354, 810.500 834.657 M 700.400 837.838 C 700.795 838.477, 702.865 839, 705 839 C 707.135 839, 709.135 839.410, 709.445 839.911 C 710.056 840.900, 706.510 841.562, 695.250 842.560 C 691.263 842.914, 688 843.535, 688 843.941 C 688 845.101, 705.829 846.996, 717.192 847.043 C 726.550 847.082, 732.726 847.975, 752.143 852.098 C 757.839 853.307, 761 852.926, 761 851.031 C 761 850.440, 758.331 849.970, 754.750 849.930 C 743.405 849.802, 743.727 848.146, 755.112 848.070 C 764.729 848.007, 766.355 847.713, 772.470 844.941 C 776.180 843.259, 779.034 841.701, 778.812 841.478 C 778.590 841.256, 774.066 841.546, 768.760 842.123 C 758.908 843.193, 756.101 842.958, 737.500 839.505 C 726.600 837.481, 699.425 836.260, 700.400 837.838 M 669 840.500 C 669 842.070, 670.738 842.421, 673.418 841.393 C 676.030 840.391, 675.206 839, 672 839 C 670 839, 669 839.500, 669 840.500 M 599.750 842.677 C 596.088 843.284, 596.225 845, 599.935 845 C 601.549 845, 604.051 845.449, 605.495 845.998 C 609.114 847.374, 607.639 849.387, 603.629 848.544 C 594.178 846.558, 583.910 846.153, 579.748 847.600 C 575.371 849.123, 571.319 851.657, 572.073 852.401 C 572.308 852.633, 578.350 853.320, 585.500 853.929 C 599.968 855.161, 608.233 856.996, 611.132 859.619 C 612.918 861.235, 613.185 861.244, 614.695 859.733 C 616.021 858.408, 616.093 857.817, 615.078 856.594 C 614.390 855.765, 614.118 854.618, 614.473 854.044 C 615.281 852.736, 618.682 852.677, 619.473 853.956 C 620.271 855.248, 623 854.112, 623 852.488 C 623 851.539, 624.142 851.343, 627.250 851.757 C 631.126 852.274, 631.379 852.177, 630.128 850.662 C 629.373 849.748, 628 849, 627.078 849 C 626.155 849, 624.854 848.454, 624.187 847.787 C 622.918 846.518, 610.673 843.078, 605.500 842.536 C 603.850 842.363, 601.263 842.427, 599.750 842.677 M 786.531 847.950 C 785.369 849.830, 790.689 851.373, 800.874 852.108 C 810.944 852.834, 817.434 851.935, 815.413 850.094 C 814.911 849.636, 809.299 848.753, 802.941 848.131 C 788.889 846.756, 787.280 846.738, 786.531 847.950 M 569.598 860.163 C 567.922 862.556, 568.315 864, 570.642 864 C 573.859 864, 571.149 866.525, 567.422 867 L 563.500 867.500 566.250 870.295 C 569.474 873.572, 569.734 875, 567.107 875 C 565.149 875, 564 876.837, 564 879.968 C 564 881.332, 565.066 881.933, 568.365 882.427 C 570.766 882.787, 573.578 883.750, 574.615 884.567 C 576.327 885.917, 575.907 886.028, 570.032 885.776 C 564.535 885.542, 563.510 885.764, 563.208 887.254 C 562.979 888.382, 563.946 889.631, 565.920 890.754 C 569.441 892.758, 569.706 893.731, 567.250 895.640 C 565.619 896.908, 565.686 897.141, 568.250 899.083 C 571.429 901.492, 571.720 902.698, 569.250 903.232 C 566.423 903.844, 576.817 908.698, 583.563 909.916 C 586.828 910.506, 594.149 911.236, 599.832 911.539 L 610.163 912.090 609.427 909.795 C 605.517 897.619, 604.074 890.218, 604.652 885.308 C 605.266 880.077, 605.237 880, 602.628 880 C 601.172 880, 599.210 879.100, 598.268 878 C 597.326 876.900, 595.321 876, 593.813 876 C 592.094 876, 590.671 876.746, 590 878 C 589.411 879.100, 588.270 880, 587.465 880 C 586.659 880, 586 879.100, 586 878 C 586 876.331, 585.333 876, 581.969 876 C 577.476 876, 576.177 874.406, 577.958 871.078 C 579.176 868.803, 582.017 868.404, 585.130 870.069 C 586.545 870.827, 587.502 870.828, 588.413 870.072 C 590.083 868.686, 602.981 871.648, 604.740 873.822 C 606.234 875.668, 606.272 875.626, 608.008 870.148 C 609.292 866.098, 609.253 865.717, 607.444 864.648 C 604.484 862.900, 601.867 862.209, 597.785 862.100 C 595.160 862.029, 593.756 861.413, 593 860 C 591.711 857.592, 589.750 857.463, 586.528 859.574 C 584.342 861.006, 583.571 861.006, 577.982 859.574 C 570.481 857.652, 571.402 857.588, 569.598 860.163 M 682 860.078 C 667.279 860.956, 653.400 863.377, 646.712 866.234 C 641.636 868.402, 634 876.062, 634 878.986 C 634 881.461, 637.234 884, 640.386 884 C 641.887 884, 646.194 883.491, 649.958 882.870 C 656.340 881.816, 656.841 881.546, 657.376 878.870 C 658.021 875.644, 659.386 875.243, 661.733 877.590 C 662.810 878.667, 664.318 878.999, 666.411 878.618 C 678.893 876.350, 690.004 875.821, 716.250 876.242 C 732.063 876.496, 745 876.381, 745 875.986 C 745 875.590, 739.938 874.722, 733.750 874.057 C 727.563 873.391, 718.675 872.163, 714 871.329 C 699.875 868.807, 698.898 868.721, 696.659 869.803 C 695.471 870.377, 689.928 871.520, 684.339 872.343 C 676.287 873.529, 672.708 873.612, 667.089 872.742 C 663.190 872.139, 660 871.327, 660 870.938 C 660 870.549, 662.511 869.917, 665.581 869.533 C 670.628 868.903, 699.079 866.959, 701.500 867.080 C 715.395 867.771, 732 867.703, 732 866.954 C 732 866.413, 727.710 866, 722.082 866 C 716.627 866, 711.452 865.727, 710.582 865.393 C 707.152 864.077, 709.338 863.074, 716.250 862.794 L 723.500 862.500 716.500 861.311 C 706.383 859.593, 696.220 859.229, 682 860.078 M 868.396 860.750 C 867.112 864.907, 866.245 865.503, 861.041 865.806 C 856.870 866.049, 855.089 865.637, 852.400 863.806 C 850.538 862.538, 849.011 861.163, 849.007 860.750 C 849.003 860.337, 847.813 860, 846.362 860 C 843.769 860, 843.735 860.088, 844.341 865.250 L 844.956 870.500 840.583 872.306 C 838.177 873.299, 835.381 875.027, 834.368 876.145 C 832.546 878.159, 832.562 878.174, 836.014 877.616 C 845.997 876.003, 862.851 874.616, 873.500 874.531 C 880.100 874.478, 893.150 873.474, 902.500 872.300 C 911.850 871.125, 923.775 869.880, 929 869.533 C 940.693 868.757, 945 868.045, 945 866.889 C 945 866.400, 942.638 865.993, 939.750 865.985 C 932.423 865.963, 930.472 864.445, 936.649 863.572 C 943.166 862.651, 945 862.055, 945 860.860 C 945 860.212, 938.691 859.970, 927.250 860.177 C 911.552 860.463, 909.345 860.708, 908.159 862.299 C 906.077 865.093, 896.863 864.328, 895.513 861.250 C 894.402 858.717, 890 858.073, 890 860.443 C 890 862.747, 885.886 865, 881.679 865 C 878.661 865, 877.182 864.335, 875 862 C 871.854 858.632, 869.206 858.131, 868.396 860.750 M 759.649 863.314 C 758.791 863.966, 757.652 865.681, 757.118 867.124 C 756.174 869.672, 756.278 869.766, 760.712 870.374 C 763.224 870.718, 766.701 871, 768.440 871 C 773.662 871, 775.750 875.225, 772.634 879.486 C 771.358 881.231, 771.044 881.252, 767.884 879.798 C 766.023 878.942, 762.192 877.954, 759.371 877.603 C 754.628 877.011, 754.197 877.134, 753.635 879.232 C 753.301 880.479, 753.021 883.397, 753.014 885.715 C 752.998 890.682, 754.138 891.551, 762.045 892.600 L 767.437 893.316 765.718 890.693 C 763.493 887.297, 763.544 885.314, 765.888 884.060 C 767.373 883.265, 768.282 883.547, 770.138 885.377 C 774.367 889.545, 776.805 890.358, 779.595 888.530 C 784.364 885.405, 785.529 889.029, 781.352 893.993 L 778.705 897.140 767.023 896.906 C 760.597 896.777, 754.814 896.997, 754.170 897.395 C 753.527 897.793, 753 899.441, 753 901.059 L 753 904 774.750 903.900 C 786.712 903.845, 797.625 903.490, 799 903.109 C 800.497 902.695, 801.624 901.564, 801.809 900.288 C 802.127 898.096, 801.714 897.984, 788.500 896.695 C 787.400 896.588, 786.500 895.825, 786.500 895 C 786.500 893.803, 788.115 893.473, 794.500 893.367 C 804.726 893.197, 805.162 893.088, 801.265 891.674 C 797.015 890.132, 797.534 888.478, 802.235 888.585 C 806.083 888.673, 806.122 888.630, 807.395 882.873 C 807.908 880.555, 807.609 880.172, 804.863 879.623 C 798.530 878.356, 789.155 878.901, 788.209 880.590 C 787.675 881.545, 786.355 882.045, 784.910 881.840 C 783.059 881.579, 782.432 880.804, 782.206 878.500 C 782.044 876.850, 782.508 874.686, 783.236 873.690 C 784.457 872.022, 785.368 871.964, 794.886 872.940 C 809.299 874.419, 809.497 874.400, 810.877 871.371 C 811.536 869.925, 811.839 868.506, 811.552 868.218 C 810.284 866.950, 791.582 865.244, 789.972 866.249 C 788.302 867.292, 768.259 864.809, 763.382 862.955 C 762.016 862.436, 760.627 862.569, 759.649 863.314 M 835.031 863.680 C 835.080 864.938, 840.051 868.283, 840.783 867.550 C 841.872 866.462, 839.424 863.519, 837.148 863.180 C 835.967 863.005, 835.014 863.230, 835.031 863.680 M 645.496 875.007 C 644.665 876.352, 648.895 882.200, 650.353 881.722 C 650.984 881.515, 651.640 879.693, 651.810 877.673 C 652.105 874.189, 651.966 874, 649.119 874 C 647.469 874, 645.838 874.453, 645.496 875.007 M 629.754 877.750 C 626.153 881.802, 625.481 891.494, 628.621 894.100 C 629.758 895.044, 630 894.457, 630 890.748 C 630 888.275, 630.675 884.338, 631.500 882 C 632.325 879.662, 633 877.355, 633 876.874 C 633 875.448, 631.422 875.874, 629.754 877.750 M 903 878.610 C 875.271 881.008, 842.789 885.058, 840.114 886.450 C 838.676 887.198, 836.409 888.978, 835.076 890.405 C 833.742 891.832, 832.311 893, 831.895 893 C 831.181 893, 831.931 889.618, 833.503 885.750 C 834.604 883.041, 831.518 883.567, 830.273 886.301 C 828.331 890.563, 826.811 900.177, 827.497 903.852 C 828.783 910.731, 832.019 912.347, 831.274 905.738 C 830.910 902.511, 831.262 900.898, 832.722 899.095 C 834.482 896.921, 836.653 896.429, 857.575 893.457 C 870.184 891.667, 888.375 889.461, 898 888.556 C 920.580 886.433, 930 885.010, 930 883.722 C 930 883.027, 924.994 882.894, 914.750 883.316 C 896.551 884.065, 896.912 882.822, 915.598 880.396 C 922.694 879.475, 928.928 878.334, 929.450 877.860 C 930.711 876.718, 922.023 876.965, 903 878.610 M 748.428 879.972 C 747.113 881.287, 735.050 882.956, 726.684 882.980 C 722.936 882.991, 718.998 883.466, 717.934 884.035 C 715.503 885.336, 715.266 888.496, 717.668 887.574 C 718.769 887.151, 720.462 888.025, 722.646 890.142 C 725.773 893.172, 726.059 893.257, 727.807 891.675 C 730.886 888.888, 731.796 889.630, 731.249 894.480 C 730.528 900.878, 732.742 904, 737.998 904 C 741.828 904, 741.920 903.920, 740.975 901.435 C 739.565 897.726, 739.776 893.335, 741.526 889.950 C 743.166 886.779, 746.720 885.681, 745.560 888.705 C 744.303 891.980, 743.922 898.512, 744.903 899.971 C 746.414 902.220, 747.181 900.677, 747.973 893.792 C 748.371 890.331, 749.215 886.233, 749.848 884.685 C 751.781 879.962, 751.007 877.393, 748.428 879.972 M 690.248 882.724 C 687.069 883.118, 687.011 883.214, 687.626 887.063 C 688.193 890.609, 688.044 891, 686.128 891 C 684.958 891, 684 890.518, 684 889.929 C 684 889.339, 683.269 889.588, 682.375 890.482 C 681.482 891.375, 679.794 891.970, 678.625 891.803 C 677.008 891.572, 676.491 890.783, 676.464 888.500 C 676.430 885.677, 676.193 885.500, 672.464 885.500 C 668.755 885.500, 668.518 885.674, 668.780 888.199 C 669.174 891.998, 665.820 893.767, 662.433 891.548 C 661.095 890.671, 660 889.289, 660 888.477 C 660 886.592, 657.999 886.598, 654.364 888.494 C 652.789 889.315, 650.074 889.990, 648.332 889.994 C 644.174 890.002, 642 890.893, 642 892.588 C 642 894.874, 646.557 895.358, 668.750 895.430 C 680.988 895.471, 689.999 895.891, 690 896.421 C 690 896.928, 689.314 898.101, 688.475 899.028 C 687.114 900.532, 687.113 900.849, 688.462 901.968 C 690.784 903.895, 693.384 902.456, 692.493 899.738 C 692.089 898.507, 691.700 894.800, 691.629 891.500 L 691.500 885.500 695.805 884.138 C 698.172 883.389, 700.322 882.989, 700.583 883.249 C 701.375 884.042, 698.995 889.363, 696.799 891.708 C 695.136 893.483, 694.855 894.689, 695.363 897.870 C 695.711 900.045, 696.248 902.484, 696.557 903.289 C 697.419 905.535, 693.158 906.250, 677 906.571 C 663.504 906.840, 656 908.068, 656 910.010 C 656 910.458, 657.708 911.113, 659.796 911.466 C 663.389 912.073, 666.774 911.754, 692 908.431 C 697.775 907.670, 706.888 906.505, 712.250 905.840 C 717.612 905.176, 722 904.358, 722 904.023 C 722 903.688, 720.538 902.983, 718.750 902.457 C 716.413 901.769, 715.403 900.816, 715.157 899.068 C 714.968 897.730, 711.854 893.342, 708.238 889.318 C 701.131 881.408, 701.060 881.382, 690.248 882.724 M 574.566 892.893 C 573.875 894.012, 576.631 898.619, 579.335 900.863 C 580.121 901.515, 583.707 902.403, 587.304 902.836 C 592.768 903.494, 594.442 903.316, 597.484 901.756 C 601.230 899.834, 601.867 897.400, 599 895.962 C 597.683 895.302, 590.705 894.032, 578.880 892.301 C 576.727 891.986, 574.978 892.226, 574.566 892.893 M 943.607 894.582 C 943.273 895.452, 943 897.113, 943 898.273 C 943 900.342, 943.028 900.346, 944.468 898.441 C 946.103 896.280, 946.488 893, 945.107 893 C 944.616 893, 943.941 893.712, 943.607 894.582 M 929.192 896.005 C 926.272 896.440, 923.122 897.482, 922.192 898.320 C 921.261 899.158, 919.281 900.148, 917.791 900.520 C 916.170 900.925, 914.244 902.617, 912.996 904.731 L 910.911 908.265 908.411 905.916 C 906.405 904.032, 905.573 903.789, 904.205 904.690 C 903.267 905.308, 902.680 906.418, 902.899 907.157 C 903.119 907.896, 903.507 909.737, 903.763 911.250 C 904.327 914.595, 907.224 914.946, 909.339 911.927 C 910.247 910.630, 911.040 910.255, 911.455 910.927 C 912.612 912.799, 914 912.087, 914 909.622 C 914 906.441, 915.751 905.188, 920.187 905.194 C 923.380 905.199, 924.014 905.601, 924.916 908.190 C 926.430 912.533, 928.500 911.220, 928.500 905.916 C 928.500 902.657, 928.893 901.500, 930 901.500 C 931.112 901.500, 931.478 902.601, 931.414 905.750 C 931.366 908.087, 931.461 910, 931.625 910 C 931.788 910, 932.792 909.066, 933.856 907.924 C 935.334 906.338, 935.665 904.925, 935.263 901.924 C 934.788 898.381, 934.952 898, 936.952 898 C 939.670 898, 939.181 895.562, 936.422 895.357 C 935.365 895.279, 932.111 895.571, 929.192 896.005 M 630 899.032 C 630 899.600, 630.645 901.609, 631.434 903.497 C 633.142 907.584, 636.851 908.910, 641.426 907.069 C 645.635 905.375, 647.209 905.286, 647.713 906.713 C 647.953 907.391, 647.007 908.163, 645.571 908.463 C 644.157 908.758, 641.835 909.244, 640.412 909.541 C 638.298 909.983, 638.042 910.345, 639.013 911.515 C 639.919 912.607, 641.667 912.805, 646.351 912.345 C 653.923 911.603, 655.344 910.530, 652.049 908.040 C 648.314 905.218, 650.608 903.089, 656.650 903.770 C 660.306 904.182, 661.167 904, 660.800 902.895 C 660.443 901.821, 657.445 901.436, 647.766 901.221 C 638.183 901.008, 634.907 900.592, 633.976 899.471 C 632.575 897.783, 630 897.499, 630 899.032 M 837 903.358 C 837 906.318, 838.691 907.709, 840.315 906.085 C 841.124 905.276, 841.150 904.462, 840.406 903.282 C 838.691 900.563, 837 900.600, 837 903.358 M 883.667 904.667 C 882.410 905.924, 883.002 906.784, 885.569 907.428 C 888.611 908.192, 894 913.417, 894 915.604 C 894 916.624, 894.755 917.032, 896.250 916.820 C 898.067 916.562, 898.561 915.764, 898.815 912.674 C 899.004 910.378, 898.495 907.878, 897.542 906.424 C 896.163 904.319, 895.189 904, 890.144 904 C 886.948 904, 884.033 904.300, 883.667 904.667 M 862 906.078 C 858.975 906.534, 855.691 906.665, 854.702 906.371 C 853.713 906.076, 852.216 906.406, 851.374 907.104 C 850.022 908.227, 850.092 908.561, 851.984 909.988 C 853.556 911.174, 854.454 913.560, 855.368 918.986 C 856.616 926.395, 857.594 927.756, 860.783 926.527 C 862.398 925.905, 862.396 925.807, 860.750 924.883 C 858.272 923.492, 858.183 911.251, 860.645 910.306 C 862.621 909.548, 864.634 912.014, 865.961 916.822 C 866.898 920.216, 869.601 924, 871.088 924 C 872.911 924, 872.932 919.841, 871.131 915.102 C 869.254 910.163, 869.251 910, 871.047 910 C 872.291 910, 874.100 912.142, 876.537 916.500 C 879.446 921.701, 880.655 923, 882.586 923 C 884.901 923, 884.999 922.723, 884.985 916.250 C 884.975 911.817, 884.658 909.992, 884.062 910.934 C 883.308 912.126, 882.471 911.915, 879.099 909.684 C 876.868 908.208, 874.160 907, 873.080 907 C 872.001 907, 870.840 906.550, 870.500 906 C 869.819 904.898, 869.835 904.898, 862 906.078 M 757.015 913.651 C 757.024 914.668, 757.408 916.095, 757.869 916.822 C 758.859 918.384, 764.972 919.943, 770.242 919.976 C 772.883 919.993, 774.350 920.588, 775.232 922 C 775.919 923.100, 777.408 924, 778.541 924 C 780.568 924, 783 925.705, 783 927.127 C 783 927.526, 782.212 928.023, 781.250 928.230 C 779.998 928.500, 780.698 929.232, 783.710 930.804 C 788.062 933.074, 796.196 933.689, 804.250 932.358 C 810.177 931.378, 808.655 930.296, 800.250 929.513 C 791.958 928.741, 788.637 927.581, 789.277 925.682 C 789.533 924.925, 792.161 924.500, 796.588 924.500 C 802.065 924.500, 803.500 924.189, 803.500 923 C 803.500 921.969, 802.248 921.401, 799.500 921.183 C 794.558 920.792, 792.275 919, 796.718 919 C 801.465 919, 803 918.057, 803 915.143 L 803 912.500 780 912.151 C 758.162 911.819, 757.001 911.895, 757.015 913.651 M 848 921.468 C 848 924.907, 843.227 926.992, 835.282 927.022 L 829.500 927.044 831.944 928.923 C 835.311 931.511, 841.200 932.395, 842.275 930.474 C 842.728 929.663, 844.170 929, 845.478 929 C 848.891 929, 851.164 926.312, 850.804 922.702 C 850.420 918.848, 848 917.783, 848 921.468 M 334.309 1026.432 C 330.593 1028.088, 325.447 1034.762, 323.918 1039.911 C 323.087 1042.706, 323.227 1045.159, 324.551 1051 C 327.067 1062.106, 327.352 1065.736, 325.971 1069.070 C 324.380 1072.912, 321.680 1074.434, 319 1073 C 316.392 1071.604, 316.447 1067.972, 319.129 1064.564 C 320.299 1063.075, 320.862 1061.527, 320.379 1061.124 C 317.369 1058.610, 311.818 1054.854, 311.549 1055.149 C 311.373 1055.342, 309.828 1057.726, 308.115 1060.446 C 304.396 1066.351, 304.163 1070.459, 307.284 1075.102 C 309.919 1079.024, 319.291 1085, 322.805 1085 C 329.027 1085, 335.962 1078.548, 338.853 1070.068 C 340.130 1066.321, 339.780 1063.271, 336.799 1052.162 C 334.665 1044.209, 335.164 1040.972, 339.066 1037.440 C 340.822 1035.851, 341.118 1035.848, 343.474 1037.391 C 346.508 1039.379, 346.601 1040.568, 344.028 1044.472 L 342.068 1047.445 346.531 1050.222 C 348.986 1051.750, 351.334 1053, 351.749 1053 C 353.293 1053, 357.005 1044.370, 357.003 1040.785 C 356.996 1031.780, 342.660 1022.713, 334.309 1026.432 M 912.900 1027.991 C 908.269 1030.439, 903.372 1036.031, 902.539 1039.822 C 902.151 1041.587, 902.461 1044.154, 903.302 1046.146 C 905.462 1051.266, 924.548 1078.442, 928.056 1081.394 C 933.740 1086.176, 943.290 1083.849, 950.436 1075.939 C 955.829 1069.969, 955.458 1066.247, 948.428 1055.789 C 941.604 1045.636, 938.639 1043.010, 934 1043.009 C 929.474 1043.007, 924.081 1046.326, 922.711 1049.956 L 921.632 1052.812 917.816 1047.483 C 913.325 1041.211, 913.124 1039.620, 916.545 1037.379 C 919.003 1035.768, 919.188 1035.806, 921.972 1038.473 L 924.854 1041.235 928.906 1038.367 C 931.134 1036.790, 932.967 1035.110, 932.979 1034.632 C 932.990 1034.155, 931.253 1032.018, 929.118 1029.882 C 925.768 1026.533, 924.636 1026.006, 920.868 1026.044 C 918.465 1026.069, 914.880 1026.945, 912.900 1027.991 M 928.422 1056.487 L 925.956 1058.953 930.228 1065.488 C 934.631 1072.223, 937.810 1074.232, 940.513 1071.989 C 941.331 1071.310, 942 1069.869, 942 1068.787 C 942 1066.475, 934.473 1055.396, 932.349 1054.580 C 931.542 1054.271, 929.786 1055.123, 928.422 1056.487 M 394.641 1063.371 C 393.318 1065.642, 387.008 1077.956, 380.621 1090.735 L 369.007 1113.970 373.970 1116.485 C 376.700 1117.868, 379.143 1119, 379.398 1119 C 379.998 1119, 407.003 1066.510, 406.992 1065.366 C 406.987 1064.890, 404.748 1063.317, 402.016 1061.871 L 397.048 1059.243 394.641 1063.371 M 853.652 1064.114 L 847.803 1067.131 848.375 1074.816 C 848.690 1079.042, 849.205 1088.800, 849.519 1096.500 C 850.068 1109.954, 851.811 1118, 854.174 1118 C 854.653 1118, 858.626 1116.199, 863.004 1113.998 L 870.964 1109.996 873.499 1114.998 C 874.893 1117.749, 876.269 1120, 876.557 1120 C 877.659 1120, 884.894 1115.981, 885.470 1115.049 C 885.803 1114.510, 885.101 1112.159, 883.911 1109.825 L 881.746 1105.581 883.774 1104.234 C 885.730 1102.935, 885.743 1102.744, 884.152 1098.933 C 882.706 1095.473, 882.178 1095.048, 879.923 1095.531 C 877.450 1096.061, 877.009 1095.375, 868.991 1078.541 C 864.396 1068.894, 860.381 1061.022, 860.068 1061.048 C 859.756 1061.075, 856.868 1062.454, 853.652 1064.114 M 443.888 1084.782 C 442.472 1088.490, 425 1139.102, 425 1139.497 C 425 1140.317, 434.470 1142.918, 435.047 1142.256 C 435.409 1141.840, 438.309 1133.950, 441.492 1124.723 C 444.675 1115.495, 447.406 1108.073, 447.562 1108.228 C 447.717 1108.384, 447.218 1115.258, 446.452 1123.505 C 445.687 1131.752, 445.047 1140.352, 445.030 1142.616 C 445 1146.665, 445.085 1146.765, 450.250 1148.759 C 453.137 1149.874, 455.776 1150.497, 456.112 1150.143 C 456.868 1149.349, 476 1095.711, 476 1094.387 C 476 1093.861, 473.972 1092.680, 471.494 1091.761 L 466.989 1090.092 465.671 1093.296 C 464.947 1095.058, 462.636 1101.349, 460.536 1107.275 C 458.436 1113.202, 456.598 1117.927, 456.451 1117.775 C 456.305 1117.624, 456.616 1111.687, 457.143 1104.583 C 458.482 1086.518, 458.690 1087.223, 451.213 1084.420 L 444.926 1082.064 443.888 1084.782 M 858.768 1093.500 C 859.041 1099.550, 859.374 1104.632, 859.508 1104.793 C 859.889 1105.250, 867.003 1101.699, 866.978 1101.065 C 866.965 1100.754, 865.001 1096.450, 862.614 1091.500 L 858.272 1082.500 858.768 1093.500 M 777.315 1095.434 C 768.553 1099.513, 767.017 1105.754, 771.497 1119.075 C 774.915 1129.238, 775.783 1130.669, 779.634 1132.496 C 783.849 1134.497, 789.513 1133.212, 793.043 1129.454 L 795.456 1126.885 797.151 1131.693 C 799.663 1138.820, 799.494 1141.818, 796.504 1143.180 C 794.442 1144.120, 793.660 1144.002, 792.004 1142.504 C 790.902 1141.506, 790 1140.111, 790 1139.404 C 790 1137.138, 788.239 1136.922, 783.816 1138.644 C 781.442 1139.569, 779.361 1140.428, 779.191 1140.555 C 779.022 1140.681, 779.606 1142.514, 780.489 1144.628 C 784.047 1153.144, 789.005 1155.303, 798.596 1152.515 C 806.267 1150.285, 811 1145.676, 811 1140.437 C 811 1138.368, 808.255 1128.205, 804.901 1117.854 C 799.526 1101.268, 798.393 1098.674, 795.366 1096.016 C 790.945 1092.135, 784.824 1091.937, 777.315 1095.434 M 781.571 1104.571 C 780.707 1105.436, 780 1106.473, 780 1106.877 C 780 1108.358, 784.310 1120.538, 785.262 1121.750 C 786.681 1123.555, 789.431 1123.286, 791.360 1121.154 C 792.924 1119.427, 792.895 1118.869, 790.911 1112.404 C 789.745 1108.607, 788.333 1104.938, 787.773 1104.250 C 786.374 1102.532, 783.460 1102.683, 781.571 1104.571 M 520.071 1107.752 C 514.237 1110.726, 513.257 1113.147, 508.802 1135.569 L 504.616 1156.638 506.622 1160.504 C 509.446 1165.945, 514.694 1168.476, 523.182 1168.489 C 529.226 1168.499, 530.158 1168.218, 532.948 1165.548 C 535.905 1162.716, 537.118 1159.747, 538.524 1151.890 C 539.168 1148.293, 539.154 1148.276, 534.642 1147.140 C 532.152 1146.513, 529.671 1146, 529.128 1146 C 528.586 1146, 527.635 1148.440, 527.016 1151.423 C 526.397 1154.406, 525.246 1157.381, 524.458 1158.035 C 522.679 1159.512, 518.423 1158.544, 517.632 1156.483 C 516.946 1154.695, 523.875 1120.102, 525.290 1118.250 C 526.589 1116.549, 530.483 1116.672, 531.967 1118.460 C 532.869 1119.547, 532.918 1121.142, 532.160 1124.698 C 531.600 1127.325, 531.299 1129.632, 531.491 1129.825 C 532.001 1130.335, 539.222 1131.948, 541.120 1131.976 C 543.460 1132.011, 545.358 1121.824, 543.953 1116.769 C 542.684 1112.203, 538.097 1108.491, 531.980 1107.081 C 525.757 1105.647, 524.005 1105.746, 520.071 1107.752 M 716.055 1110.882 C 714.377 1111.350, 713.341 1112.605, 712.750 1114.884 C 712.078 1117.480, 711.041 1118.538, 707.996 1119.734 C 704.391 1121.150, 704.146 1121.494, 704.684 1124.382 C 705.485 1128.683, 706.099 1129.119, 709.843 1128.045 C 712.198 1127.370, 713.210 1127.442, 713.482 1128.305 C 713.690 1128.962, 715.507 1138.725, 717.520 1150 C 719.534 1161.275, 721.336 1170.659, 721.526 1170.853 C 722.136 1171.475, 731.980 1169.841, 732.478 1169.035 C 732.743 1168.607, 730.623 1155.149, 727.767 1139.129 C 722.081 1107.233, 722.812 1108.996, 716.055 1110.882 M 586.523 1117.340 C 586.333 1117.978, 585.665 1130.650, 585.038 1145.500 C 584.412 1160.350, 583.809 1173.625, 583.700 1175 L 583.500 1177.500 596.994 1178.165 C 611.896 1178.899, 611.959 1178.877, 611.985 1172.819 L 612 1169.137 604 1168.440 L 596 1167.742 596 1164.510 C 596 1162.733, 596.286 1159.191, 596.636 1156.640 L 597.272 1152 603.636 1152 L 610 1152 610 1147.607 C 610 1142.520, 609.239 1142, 601.793 1142 L 596.750 1142 597.375 1138.875 C 597.719 1137.156, 598 1133.715, 598 1131.227 L 598 1126.704 606 1127.320 L 614 1127.937 614 1123.041 L 614 1118.144 608.750 1117.611 C 595.899 1116.305, 586.864 1116.195, 586.523 1117.340" stroke="none" fill="#ECE3D3" fill-rule="evenodd"/></svg>