<svg fill="none" height="246" viewBox="0 0 246 246" width="246" xmlns="http://www.w3.org/2000/svg"><path d="m230.171 151.351 1.848 1.641c.598.532 1.647 1.507 2.488 2.953.801 1.378 1.272 2.929 1.372 4.621 1.709 9.594 2.621 19.223 2.621 28.785 0 10.507-.879 19.317-1.765 25.529-.443 3.108-.889 5.573-1.229 7.281-.17.854-.314 1.521-.418 1.984-.052.232-.094.414-.124.542-.015.065-.028.117-.037.155l-.016.062c0 .003 0 .005-.001.007l-.001.002-6.309-1.562 6.308 1.565-.212.853-.43.768c-.519.921-1.439 2.47-2.976 3.715-1.611 1.304-3.462 1.947-5.375 2.073-.197.041-.45.094-.813.17-.871.182-2.127.439-3.724.732-3.195.584-7.729 1.303-13.357 1.855-11.172 1.095-26.684 1.534-44.613-1.052-2.955-.19-4.968-1.772-6.042-2.846-.563-.564-1.005-1.122-1.258-1.446-.183-.235-.194-.251-.307-.395-.075-.096-.085-.104-.059-.075l-.465-.522-.342-.609c-1.495-2.658-1.389-5.374-.827-7.359.533-1.88 1.559-3.487 2.696-4.624l.014-.015.016-.015 61.485-60.693c1.383-1.96 3.277-3.089 5.16-3.622 1.336-.379 2.686-.448 3.544-.458zm-121.897-134.855c1.145-.404 3.998-1.0802 6.677.4102 27.907 8.107 51.54 23.0283 71.525 43.9277 20.662 20.5866 35.614 44.0341 43.655 71.0991.22.298.463.671.682 1.11.489.976.673 1.887.743 2.586.052.52.044 1.041.044 1.121 0 2.366-1.028 4.143-1.723 5.116-.657.919-1.409 1.658-1.981 2.178l-82.325 81.428-.123.122-.13.114c-.961.854-2.359 1.796-4.037 2.333-1.245.398-3.801.89-6.319-.384-28.022-8.004-51.6514-23.024-72.4532-42.908l-.1065-.102-.1005-.105c-20.2269-21.16-34.2666-45.787-43.9229-72.804l-.3789-1.061v-1.127c-.0001-.432-.1054-2.555.6875-4.514.8224-2.032 2.2302-3.305 3.5615-4.128l81.857-81.7567c1-.9988 2.451-2.0491 4.168-2.6553zm26.127 114.521.102.1.961-1.061zm-19.229-16.289.86-.769-.078-.086zm-75.1925-106.91556c11.2607-.99207 26.7432-1.22645 44.6631 1.75683 1.6804.09463 3.3309.55483 4.7363 1.29883.7934.42 1.7573 1.0624 2.6045 2.0234.8261.9372 1.917 2.6292 1.917 4.959v1.5996c0 .9194.1735 4.3187-2.7041 7.1963l-.0039.0039-62.0996 62-.1338.1328-.1406.125c-1.9849 1.7644-4.3581 2.2422-6.168 2.2422-1.4331 0-2.8261-.2873-4.1065-.7558-4.3677-.8548-6.209-5.0589-6.5-8.0996-1.7418-8.8843-2.5439-18.4798-2.5439-28.8448 0-10.1228.8825-18.7123 1.7656-24.8945.442-3.0937.8841-5.5832 1.2139-7.3486.1258-.6733.3383-1.7812.3857-2.0342.0141-.0752.025-.1406.0352-.1963v-2.2187l1.9033-1.9034c.4807-.4806.98-.9502 1.3994-1.3457.4431-.4177.8272-.7813 1.2002-1.1543l1.9043-1.9043h2.2891c.2098-.0363.5028-.0893.9199-.1679.912-.1719 2.2339-.42501 3.877-.70804 3.2982-.56816 7.9054-1.26126 13.5859-1.76172z" fill="#facc08" stroke="#000" stroke-width="13"/></svg>